<svg width="600" height="600" viewBox="0 0 600 600" fill="none" xmlns="http://www.w3.org/2000/svg">
<path d="M540 300C540 347.468 525.924 393.869 499.553 433.337C473.181 472.805 435.698 503.566 391.844 521.731C347.99 539.896 299.734 544.649 253.178 535.388C206.623 526.128 163.859 503.27 130.294 469.706C96.7298 436.141 73.872 393.377 64.6115 346.822C55.3511 300.266 60.1039 252.01 78.2689 208.156C96.4339 164.302 127.195 126.819 166.663 100.447C206.131 74.0758 252.532 60 300 60V118.347C264.073 118.347 228.952 129.001 199.079 148.961C169.207 168.922 145.924 197.292 132.175 230.485C118.426 263.677 114.829 300.202 121.838 335.439C128.847 370.676 146.148 403.043 171.552 428.448C196.957 453.852 229.324 471.153 264.561 478.162C299.798 485.171 336.323 481.574 369.515 467.825C402.708 454.076 431.078 430.793 451.039 400.921C470.999 371.048 481.653 335.927 481.653 300H540Z" fill="#43A047"/>
<path d="M420 300C420 323.734 412.962 346.935 399.776 366.668C386.591 386.402 367.849 401.783 345.922 410.866C323.995 419.948 299.867 422.324 276.589 417.694C253.311 413.064 231.929 401.635 215.147 384.853C198.365 368.071 186.936 346.689 182.306 323.411C177.676 300.133 180.052 276.005 189.134 254.078C198.217 232.151 213.598 213.409 233.332 200.224C253.065 187.038 276.266 180 300 180V228C285.76 228 271.839 232.223 259.999 240.134C248.159 248.046 238.93 259.291 233.481 272.447C228.031 285.603 226.605 300.08 229.383 314.047C232.162 328.013 239.019 340.842 249.088 350.912C259.158 360.981 271.987 367.838 285.953 370.617C299.92 373.395 314.397 371.969 327.553 366.519C340.709 361.07 351.954 351.841 359.866 340.001C367.777 328.161 372 314.24 372 300H420Z" fill="#757070"/>
<path d="M372 92H420V300L396.5 320L372 300V92Z" fill="#757070"/>
</svg>
