<svg version="1.0" xmlns="http://www.w3.org/2000/svg" width="1200" height="675" viewBox="0 0 12000 6750"><path d="m3219 4861-24-19-3-491-3-491-639-2c-598-3-640-4-657-21-16-16-18-43-21-246-2-179 0-236 11-263 8-18 229-382 492-808s516-836 561-910c61-99 91-139 115-152 30-16 63-18 289-18 276 0 300 4 300 53 0 13-31 74-69 137-97 163-715 1188-856 1420-65 107-129 214-143 238l-24 42h641l3-281 3-281 24-19c21-17 42-19 246-19 210 0 224 1 249 21l26 20v547l109 4c160 5 151-13 151 273s9 268-151 273l-109 4v965l-23 21c-22 21-31 22-249 22-207 0-228-2-249-19zm6128 7c-34-27-37-64-37-539v-469h-626c-626 0-655-1-676-34-4-6-8-119-8-252 0-231 1-242 23-282 12-22 270-441 572-931 458-741 555-893 582-906 25-12 79-15 285-15 278 0 298 4 298 57 0 15-50 108-122 227-67 110-257 426-423 701s-350 581-410 680-115 190-123 203l-14 22h642v-259c0-156 4-271 10-287 20-52 28-53 273-54 214 0 228 1 247 20s20 33 20 295v275h100c109 0 142 10 159 47 15 33 15 423 0 457-16 35-57 46-165 46h-94v485c0 472-1 486-20 505s-33 20-248 20c-167 0-233-3-245-12z" fill="#656060"/><path d="M5950 5053c-563-57-1053-400-1296-907-65-137-98-234-132-390-22-105-25-145-25-306 0-164 3-200 27-314 15-71 41-167 57-215 30-87 136-307 167-348l17-22 140 81c77 44 175 101 218 125 42 24 77 49 77 55s-16 36-35 67c-49 81-99 203-126 307-20 77-23 112-23 264 0 157 3 185 27 275 51 190 171 392 307 518 130 120 289 210 465 264 84 25 103 27 280 27 180 1 195-1 290-27 200-57 359-152 497-295 231-240 337-539 308-864-39-436-335-810-745-941-145-46-184-52-345-52-135 1-169 4-263 28-60 15-112 27-116 27s-13-24-21-52c-7-29-35-134-61-233-27-99-49-187-49-196 0-19 160-62 300-80 125-17 431-6 545 20 560 124 1006 523 1191 1063 135 393 104 861-81 1228-245 486-704 816-1232 885-103 14-273 17-363 8z" fill="#40aa54"/><path d="M3315 4873c197-7 393-7 388 0-2 4-109 6-236 5-128-1-196-3-152-5zm6029-9c-18-15-18-15 3-5 13 7 108 11 243 11s230-4 243-11c21-10 21-10 3 5-17 13-56 16-246 16s-229-3-246-16zm-5617-35c4-13 8-18 11-10 2 7-1 18-6 23-8 8-9 4-5-13zm6123 1c0-7 3-10 7-7 3 4 3 10 0 14-4 3-7 0-7-7zm-6658-487-2-483-632-3-633-2 633-3c499-1 634 1 637 11 3 6 4 226 3 487l-3 475-3-482zm6118-8v-475l-632-3-633-2 638-3 637-2v480c0 264-2 480-5 480s-5-214-5-475zm-5342-491c12-8 22-23 23-32 0-11 2-13 6-4 6 14-24 52-41 52-6 0 0-7 12-16zm4048-10c-9-8-16-23-15-32 0-14 2-14 6-2 3 8 12 23 21 33 19 21 9 23-12 1zm2084 7c0-6 4-13 10-16s7 1 4 9c-7 18-14 21-14 7zm-6109-460c-1-8-9-24-18-35-16-20-16-20 6 0 13 12 21 28 18 35-4 11-6 11-6 0zm4011-31c0-14 2-19 5-12 2 6 2 18 0 25-3 6-5 1-5-13zm-5447-50c9-16 18-30 21-30 2 0-2 14-11 30-9 17-18 30-21 30-2 0 2-13 11-30zm6135-20c6-11 13-20 16-20 2 0 0 9-6 20s-13 20-16 20c-2 0 0-9 6-20zm-6785 0c3-5 8-10 11-10s2 5-1 10c-3 6-8 10-11 10s-2-4 1-10zm25-40c6-11 13-20 16-20 2 0 0 9-6 20s-13 20-16 20c-2 0 0-9 6-20zm655 10c3-5 8-10 11-10s2 5-1 10c-3 6-8 10-11 10s-2-4 1-10zm6135-20c6-11 13-20 16-20 2 0 0 9-6 20s-13 20-16 20c-2 0 0-9 6-20zm-6110-20c6-11 13-20 16-20 2 0 0 9-6 20s-13 20-16 20c-2 0 0-9 6-20zm-650-20c6-11 13-20 16-20 2 0 0 9-6 20s-13 20-16 20c-2 0 0-9 6-20zm6130-10c6-11 13-20 16-20 2 0 0 9-6 20s-13 20-16 20c-2 0 0-9 6-20zm671-15c12-22 26-44 32-50 15-16-20 48-38 70-9 11-7 2 6-20zm-6121-5c6-11 13-20 16-20 2 0 0 9-6 20s-13 20-16 20c-2 0 0-9 6-20zm5479-25c5-11 17-29 26-40l16-20-10 20c-5 11-17 29-26 40l-16 20 10-20zm-6109-25c6-11 13-20 16-20 2 0 0 9-6 20s-13 20-16 20c-2 0 0-9 6-20zm6795-20c3-5 8-10 11-10s2 5-1 10c-3 6-8 10-11 10s-2-4 1-10zm-6765-30c6-11 13-20 16-20 2 0 0 9-6 20s-13 20-16 20c-2 0 0-9 6-20zm660 0c6-11 13-20 16-20 2 0 0 9-6 20s-13 20-16 20c-2 0 0-9 6-20zm5470-10c6-11 13-20 16-20 2 0 0 9-6 20s-13 20-16 20c-2 0 0-9 6-20zm675-25c15-27 32-54 38-60 6-5-2 13-18 40-15 28-32 55-38 60-6 6 2-12 18-40zm-6764-29c12-20 23-36 25-36 7 0-25 58-36 65-5 3-1-10 11-29zm6114 14c3-5 8-10 11-10s2 5-1 10c-3 6-8 10-11 10s-2-4 1-10zm25-40c6-11 13-20 16-20 2 0 0 9-6 20s-13 20-16 20c-2 0 0-9 6-20zm-5449-25c12-22 26-44 32-50 15-16-20 48-38 70-9 11-7 2 6-20zm6124-5c3-5 8-10 11-10s2 5-1 10c-3 6-8 10-11 10s-2-4 1-10zm-6755-40c6-11 13-20 16-20 2 0 0 9-6 20s-13 20-16 20c-2 0 0-9 6-20zm6783-5c9-16 23-39 32-50s7-2-6 20c-27 49-47 72-26 30zm-648-15c3-5 8-10 11-10s2 5-1 10c-3 6-8 10-11 10s-2-4 1-10zm-5460-10c3-5 8-10 11-10s2 5-1 10c-3 6-8 10-11 10s-2-4 1-10zm5485-30c6-11 13-20 16-20 2 0 0 9-6 20s-13 20-16 20c-2 0 0-9 6-20zm-5457-15c9-16 23-39 32-50s7-2-6 20c-27 49-47 72-26 30zm-648-15c3-5 8-10 11-10s2 5-1 10c-3 6-8 10-11 10s-2-4 1-10zm6785-10c6-11 13-20 16-20 2 0 0 9-6 20s-13 20-16 20c-2 0 0-9 6-20zm-650-10c6-11 13-20 16-20 2 0 0 9-6 20s-13 20-16 20c-2 0 0-9 6-20zm-4599 1c-1-8-9-24-18-35-16-20-16-20 6 0 13 12 21 28 18 35-4 11-6 11-6 0zm-1511-21c6-11 13-20 16-20 2 0 0 9-6 20s-13 20-16 20c-2 0 0-9 6-20zm7625 1c-3-11-15-23-26-26-11-4-19-9-16-11 2-3 12-2 21 2 18 7 41 42 33 51-3 2-8-5-12-16zm-6645-1c0-13 49-44 57-36 3 3 1 6-5 6-7 0-21 9-32 20s-20 16-20 10zm5810-20c6-11 13-20 16-20 2 0 0 9-6 20s-13 20-16 20c-2 0 0-9 6-20zm-655 0c3-5 8-10 11-10s2 5-1 10c-3 6-8 10-11 10s-2-4 1-10zm-5438-50c15-28 36-60 47-73l18-22-14 25c-8 14-27 46-42 73-15 26-30 47-33 47-2 0 8-23 24-50zm6440 39c7-7 15-10 18-7s-2 9-12 12c-14 6-15 5-6-5zm-5684-6c4-3 10-3 14 0 3 4 0 7-7 7s-10-3-7-7zm4707-23c6-11 13-20 16-20 2 0 0 9-6 20s-13 20-16 20c-2 0 0-9 6-20zm-6105-30c3-5 8-10 11-10s2 5-1 10c-3 6-8 10-11 10s-2-4 1-10zm6790-20c9-16 18-30 21-30 2 0-2 14-11 30-9 17-18 30-21 30-2 0 2-13 11-30zm-655 0c6-11 13-20 16-20 2 0 0 9-6 20s-13 20-16 20c-2 0 0-9 6-20zm-6099-35c12-22 26-44 32-50 15-16-20 48-38 70-9 11-7 2 6-20zm6789-25c6-11 13-20 16-20 2 0 0 9-6 20s-13 20-16 20c-2 0 0-9 6-20zm-6107-25c9-16 23-39 32-50s7-2-6 20c-27 49-47 72-26 30zm5467 5c6-11 13-20 16-20 2 0 0 9-6 20s-13 20-16 20c-2 0 0-9 6-20zm681-45c12-22 26-44 32-50 15-16-20 48-38 70-9 11-7 2 6-20zm-651-5c6-11 13-20 16-20 2 0 0 9-6 20s-13 20-16 20c-2 0 0-9 6-20zm-6099-35c12-22 26-44 32-50 15-16-20 48-38 70-9 11-7 2 6-20zm659-15c6-11 13-20 16-20 2 0 0 9-6 20s-13 20-16 20c-2 0 0-9 6-20zm5490-30c6-11 13-20 16-20 2 0 0 9-6 20s-13 20-16 20c-2 0 0-9 6-20zm645 10c3-5 8-10 11-10s2 5-1 10c-3 6-8 10-11 10s-2-4 1-10zm-6105-30c6-11 13-20 16-20 2 0 0 9-6 20s-13 20-16 20c-2 0 0-9 6-20zm6133-15c9-16 23-39 32-50s7-2-6 20c-27 49-47 72-26 30zm-6762-19c12-20 23-36 25-36 7 0-25 58-36 65-5 3-1-10 11-29zm6139-26c6-11 13-20 16-20 2 0 0 9-6 20s-13 20-16 20c-2 0 0-9 6-20zm-5455-30c9-16 18-30 21-30 2 0-2 14-11 30-9 17-18 30-21 30-2 0 2-13 11-30zm6135-20c6-11 13-20 16-20 2 0 0 9-6 20s-13 20-16 20c-2 0 0-9 6-20zm-6748-36c13-22 31-52 41-65s8-6-5 17c-13 22-31 52-41 65s-8 6 5-17zm648-4c6-11 13-20 16-20 2 0 0 9-6 20s-13 20-16 20c-2 0 0-9 6-20zm5475 0c3-5 8-10 11-10s2 5-1 10c-3 6-8 10-11 10s-2-4 1-10zm660-20c9-16 18-30 21-30 2 0-2 14-11 30-9 17-18 30-21 30-2 0 2-13 11-30zm-635-20c6-11 13-20 16-20 2 0 0 9-6 20s-13 20-16 20c-2 0 0-9 6-20zm-5475 0c3-5 8-10 11-10s2 5-1 10c-3 6-8 10-11 10s-2-4 1-10zm30-50c9-16 18-30 21-30 2 0-2 14-11 30-9 17-18 30-21 30-2 0 2-13 11-30zm-623-36c13-22 31-52 41-65s8-6-5 17c-13 22-31 52-41 65s-8 6 5-17zm6758 16c6-11 13-20 16-20 2 0 0 9-6 20s-13 20-16 20c-2 0 0-9 6-20zm-635-20c3-5 8-10 11-10s2 5-1 10c-3 6-8 10-11 10s-2-4 1-10zm-5470-10c3-5 8-10 11-10s2 5-1 10c-3 6-8 10-11 10s-2-4 1-10zm6135-20c6-11 13-20 16-20 2 0 0 9-6 20s-13 20-16 20c-2 0 0-9 6-20zm-629-25c12-22 26-44 32-50 15-16-20 48-38 70-9 11-7 2 6-20zm-5446-54c8-17 19-33 25-36 5-3 1 10-11 29-25 43-36 48-14 7zm-634-16c12-22 26-44 32-50 15-16-20 48-38 70-9 11-7 2 6-20zm6769-5c6-11 13-20 16-20 2 0 0 9-6 20s-13 20-16 20c-2 0 0-9 6-20zm-609-55c12-22 26-44 32-50 15-16-20 48-38 70-9 11-7 2 6-20zm639 5c6-11 13-20 16-20 2 0 0 9-6 20s-13 20-16 20c-2 0 0-9 6-20zm41-65c12-22 26-44 32-50 15-16-20 48-38 70-9 11-7 2 6-20zm-6760-10c12-22 26-44 32-50 15-16-20 48-38 70-9 11-7 2 6-20zm639 5c6-11 13-20 16-20 2 0 0 9-6 20s-13 20-16 20c-2 0 0-9 6-20zm5501-34c12-20 23-36 25-36 7 0-25 58-36 65-5 3-1-10 11-29zm-5471-16c6-11 13-20 16-20 2 0 0 9-6 20s-13 20-16 20c-2 0 0-9 6-20zm-600-67c17-29 34-53 37-53 6 0-37 71-55 90-7 8 0-9 18-37zm630 17c6-11 13-20 16-20 2 0 0 9-6 20s-13 20-16 20c-2 0 0-9 6-20zm5511-45c12-22 26-44 32-50 15-16-20 48-38 70-9 11-7 2 6-20zm-5470-20c12-22 26-44 32-50 15-16-20 48-38 70-9 11-7 2 6-20zm6119 5c6-11 13-20 16-20 2 0 0 9-6 20s-13 20-16 20c-2 0 0-9 6-20zm-6745-30c3-5 8-10 11-10s2 5-1 10c-3 6-8 10-11 10s-2-4 1-10zm6775-20c6-11 13-20 16-20 2 0 0 9-6 20s-13 20-16 20c-2 0 0-9 6-20zm-6747-25c9-16 23-39 32-50s7-2-6 20c-27 49-47 72-26 30zm647-15c6-11 13-20 16-20 2 0 0 9-6 20s-13 20-16 20c-2 0 0-9 6-20zm5490-10c6-11 13-20 16-20 2 0 0 9-6 20s-13 20-16 20c-2 0 0-9 6-20zm643-5c9-16 23-39 32-50s7-2-6 20c-27 49-47 72-26 30zm-6081-72c18-34 34-60 36-58 5 4-33 76-52 100-9 11-2-8 16-42zm5467 32c5-11 17-29 26-40l16-20-10 20c-5 11-17 29-26 40l-16 20 10-20zm-6097-41c13-22 31-52 41-65s8-6-5 17c-13 22-31 52-41 65s-8 6 5-17zm6766-9c5-11 12-27 15-35 5-13 6-13 6 1 1 8-6 24-15 35-15 19-15 19-6-1zm-613-41c9-17 27-36 39-44 20-12 14-3-48 65-5 6-1-4 9-21zm-5504-37c-13-21-12-21 5-5 10 10 16 20 13 22-3 3-11-5-18-17zm6120 0c-13-21-12-21 5-5 10 10 16 20 13 22-3 3-11-5-18-17z" fill="#716d6d"/><g fill="#59b76b"><path d="M6043 5053c37-2 96-2 130 0s4 3-68 3c-71 0-99-1-62-3zm-145-10c12-2 30-2 40 0 9 3-1 5-23 4-22 0-30-2-17-4zm370 0c12-2 30-2 40 0 9 3-1 5-23 4-22 0-30-2-17-4zm-435-10c9-2 23-2 30 0 6 3-1 5-18 5-16 0-22-2-12-5zm510 0c9-2 25-2 35 0 9 3 1 5-18 5s-27-2-17-5zm-570-10c9-2 23-2 30 0 6 3-1 5-18 5-16 0-22-2-12-5zm635 0c6-2 18-2 25 0 6 3 1 5-13 5s-19-2-12-5zm50-10c7-3 16-2 19 1 4 3-2 6-13 5-11 0-14-3-6-6zm40-10c7-3 16-2 19 1 4 3-2 6-13 5-11 0-14-3-6-6zm35-10c4-3 10-3 14 0 3 4 0 7-7 7s-10-3-7-7zm-940-20c4-3 10-3 14 0 3 4 0 7-7 7s-10-3-7-7zm1027-8c46-18 64-17 25 0-16 8-37 14-45 14s1-7 20-14zm-1057-2c4-3 10-3 14 0 3 4 0 7-7 7s-10-3-7-7zm-58-18c-25-12-26-14-5-9 28 7 60 23 45 23-5 0-23-6-40-14zm1226-19c10-9 169-86 169-81s-156 85-166 85c-4 0-5-2-3-4zm-1373-47c-21-11-38-22-38-24 0-5 79 32 89 41 12 11-18 1-51-17zm-115-69c-35-22-63-42-63-44 0-3 29 13 65 35 56 35 74 49 63 49-2 0-31-18-65-40zm1667 26c0-3 9-10 20-16s20-8 20-6c0 3-9 10-20 16s-20 8-20 6zm50-29c0-3 12-12 26-22 15-9 23-12 20-6-7 11-46 35-46 28zm60-41c0-2 14-14 30-26 17-12 30-19 30-16 0 2-13 14-30 26-16 12-30 19-30 16zm-1890-37-35-30 38 26c33 24 43 35 34 35-1 0-18-14-37-31zm1980-30c14-14 68-65 120-114 66-62 76-70 35-27-33 35-87 87-120 115s-49 39-35 26zm-2058-30c-19-17-32-32-30-35 3-2 20 12 38 31 42 43 37 45-8 4zm981-126c37-2 97-2 135 0 37 2 6 3-68 3s-105-1-67-3zm-105-10c6-2 18-2 25 0 6 3 1 5-13 5s-19-2-12-5zm-1044-35-29-33 33 29c17 17 32 31 32 33 0 8-8 1-36-29zm944 15c7-3 16-2 19 1 4 3-2 6-13 5-11 0-14-3-6-6zm-86-20c-24-8-41-17-39-19s28 5 58 15c30 11 47 20 39 19-8 0-34-6-58-15zm663 7c11-5 27-9 35-9 9 0 8 4-5 9-11 5-27 9-35 9-9 0-8-4 5-9zm58-17c4-3 10-3 14 0 3 4 0 7-7 7s-10-3-7-7zm891-36c21-26 40-47 43-47 7 0-56 78-70 87-6 4 6-14 27-40zm-854 23c8-5 20-10 25-10 6 0 3 5-5 10s-19 10-25 10c-5 0-3-5 5-10zm-1667-32c-11-13-34-45-52-73-31-49-17-33 46 52 36 47 38 56 6 21zm765-9c-32-16-58-32-58-34 0-5 119 52 129 61 13 12-22-1-71-27zm983 7c2-2 15-9 29-15 24-11 24-11 6 3-16 13-49 24-35 12zm59-30c0-3 9-10 20-16s20-8 20-6c0 3-9 10-20 16s-20 8-20 6zm-1126-28c-4-7-3-8 4-4s12 9 12 12c0 8-9 4-16-8zm1907-22c12-20 25-39 30-42s0 11-12 30c-12 20-25 39-30 42s0-11 12-30zm-1983-27c-108-84-238-228-273-302-9-18-10-24-3-13 89 132 164 215 258 289 80 62 86 67 78 67-3 0-30-19-60-41zm1282 27c0-3 15-15 33-27 23-17 28-18 18-6-14 18-51 42-51 33zm-1992-68c-22-34-52-95-41-83 13 14 65 105 60 105-3 0-11-10-19-22zm2147-68c44-47 93-101 108-120 24-30 24-29-3 11-17 25-65 79-108 120l-77 74 80-85zm595 60c6-11 13-20 16-20 2 0 0 9-6 20s-13 20-16 20c-2 0 0-9 6-20zm40-70c11-22 23-40 25-40 3 0-4 18-15 40s-23 40-25 40c-3 0 4-18 15-40zm-2873-95c-24-50-20-58 4-12 11 22 19 41 17 43-3 2-12-12-21-31zm2913 24c0-4 11-31 25-60 14-30 22-43 19-29-7 26-43 100-44 89zm-519-113c12-20 23-36 25-36 7 0-25 58-36 65-5 3-1-10 11-29zm-2431 4c0-7 3-10 7-7 3 4 3 10 0 14-4 3-7 0-7-7zm3000-15c0-5 5-17 10-25s10-10 10-5c0 6-5 17-10 25s-10 11-10 5zm-3014-20c-9-26-7-32 5-12 6 10 9 21 6 23-2 3-7-2-11-11zm528-56c-14-28-24-53-22-55s16 21 31 51 25 55 22 55-16-23-31-51zm-548-5c-4-14-5-28-3-31 3-2 8 8 11 23 4 14 5 28 3 31-3 2-8-8-11-23zm2525-14c14-31 19-36 19-24 0 6-7 19-16 30-14 18-14 18-3-6zm550-26c0-11 3-14 6-6 3 7 2 16-1 19-3 4-6-2-5-13zm-3095-30c-4-14-5-28-3-31 3-2 8 8 11 23 4 14 5 28 3 31-3 2-8-8-11-23zm2564 11c0-5 5-17 10-25s10-10 10-5c0 6-5 17-10 25s-10 11-10 5zm-2034-20c-9-26-7-32 5-12 6 10 9 21 6 23-2 3-7-2-11-11zm2575-1c0-11 3-14 6-6 3 7 2 16-1 19-3 4-6-2-5-13zm10-40c0-11 3-14 6-6 3 7 2 16-1 19-3 4-6-2-5-13zm-2601-4c0-7 3-10 7-7 3 4 3 10 0 14-4 3-7 0-7-7zm-530-10c0-7 3-10 7-7 3 4 3 10 0 14-4 3-7 0-7-7zm520-20c0-7 3-10 7-7 3 4 3 10 0 14-4 3-7 0-7-7zm2622-10c0-14 2-19 5-12 2 6 2 18 0 25-3 6-5 1-5-13zm-3150-20c0-14 2-19 5-12 2 6 2 18 0 25-3 6-5 1-5-13zm2628 10c0-7 3-10 7-7 3 4 3 10 0 14-4 3-7 0-7-7zm-2119-44c-6-25-11-53-10-63 0-10 7 9 15 41 8 33 13 61 10 63-2 2-9-16-15-41zm2130 8c0-11 3-14 6-6 3 7 2 16-1 19-3 4-6-2-5-13zm520-10c0-11 3-14 6-6 3 7 2 16-1 19-3 4-6-2-5-13zm-3169-19c0-16 2-22 5-12 2 9 2 23 0 30-3 6-5-1-5-18zm2659-11c0-11 3-14 6-6 3 7 2 16-1 19-3 4-6-2-5-13zm521-34c0-14 2-19 5-12 2 6 2 18 0 25-3 6-5 1-5-13zm-3189-30c0-25 2-35 4-22 2 12 2 32 0 45-2 12-4 2-4-23zm2679 15c0-16 2-22 5-12 2 9 2 23 0 30-3 6-5-1-5-18zm-2170-35c0-19 2-27 5-17 2 9 2 25 0 35-3 9-5 1-5-18zm2691-65c0-38 2-53 4-32 2 20 2 52 0 70-2 17-4 1-4-38zm-510 5c0-30 2-43 4-27 2 15 2 39 0 55-2 15-4 2-4-28zm-2189-90c0-58 1-81 3-52 2 28 2 76 0 105-2 28-3 5-3-53zm2699-85c0-38 2-53 4-32 2 20 2 52 0 70-2 17-4 1-4-38zm-510-10c0-33 2-45 4-27s2 45 0 60-4 0-4-33zm-2181-55c0-19 2-27 5-17 2 9 2 25 0 35-3 9-5 1-5-18zm-509-25c0-22 2-30 4-17 2 12 2 30 0 40-3 9-5-1-4-23zm2673-36c-4-23-5-44-2-46 2-2 7 14 11 37s5 43 2 46c-2 3-7-14-11-37zm516 6c0-16 2-22 5-12 2 9 2 23 0 30-3 6-5-1-5-18zm-2670-15c0-14 2-19 5-12 2 6 2 18 0 25-3 6-5 1-5-13zm-510-30c0-14 2-19 5-12 2 6 2 18 0 25-3 6-5 1-5-13zm519-16c0-11 3-14 6-6 3 7 2 16-1 19-3 4-6-2-5-13zm2650-10c0-11 3-14 6-6 3 7 2 16-1 19-3 4-6-2-5-13zm-521-4c0-7 3-10 7-7 3 4 3 10 0 14-4 3-7 0-7-7zm-2639-26c0-11 3-14 6-6 3 7 2 16-1 19-3 4-6-2-5-13zm520 6c0-8 4-24 9-35 5-13 9-14 9-5 0 8-4 24-9 35-5 13-9 14-9 5zm2631-20c0-14 2-19 5-12 2 6 2 18 0 25-3 6-5 1-5-13zm-541-51c-6-18-9-34-7-36s9 10 15 28 9 34 7 36-9-10-15-28zm531 1c0-14 2-19 5-12 2 6 2 18 0 25-3 6-5 1-5-13zm-3121-26c0-11 3-14 6-6 3 7 2 16-1 19-3 4-6-2-5-13zm3105-30c-4-14-5-28-3-31 3-2 8 8 11 23 4 14 5 28 3 31-3 2-8-8-11-23zm-2565 11c0-5 6-21 14-35s14-20 14-15c0 6-6 21-14 35s-14 21-14 15zm-530-15c0-8 4-24 9-35 5-13 9-14 9-5 0 8-4 24-9 35-5 13-9 14-9 5zm2555-5c-9-26-7-32 5-12 6 10 9 21 6 23-2 3-7-2-11-11zm525-51c0-11 3-14 6-6 3 7 2 16-1 19-3 4-6-2-5-13zm-2521 0c0-6 7-19 16-30 14-18 14-18 3 6-14 31-19 36-19 24zm1927-85c-20-33-31-56-23-50 13 11 70 111 63 111-2 0-20-27-40-61zm-2457 41c0-7 3-10 7-7 3 4 3 10 0 14-4 3-7 0-7-7zm3030-10c0-7 3-10 7-7 3 4 3 10 0 14-4 3-7 0-7-7z"/><path d="M5167 2860c27-49 27-50 8-65-19-16-19-16 3-5 28 14 28 22-4 76-36 61-42 56-7-6zm2420-12c-9-23-15-43-13-45s11 15 20 38 15 43 13 45-11-15-20-38zm-2971-21c3-10 9-15 12-12s0 11-7 18c-10 9-11 8-5-6zm2348-54c-15-20-23-33-16-29 13 8 56 66 49 66-3 0-17-17-33-37zm-2333 22c0-5 6-21 14-35s14-20 14-15c0 6-6 21-14 35s-14 21-14 15zm487-31c-38-20-36-28 2-9 17 9 30 18 30 20 0 7-1 6-32-11zm2409-49c-9-19-15-35-12-35 7 0 37 61 33 66-3 2-12-12-21-31zm-2852-15c9-16 18-30 21-30 2 0-2 14-11 30-9 17-18 30-21 30-2 0 2-13 11-30zm320-6c-75-45-98-67-29-28 55 31 102 63 94 63-3 0-32-16-65-35zm1856-44c-41-39-103-89-138-111-35-23-63-43-63-46 0-5 12 2 81 48 49 33 212 178 199 178-3 0-38-31-79-69zm629-20c-6-11-8-20-6-20 3 0 10 9 16 20s8 20 6 20c-3 0-10-9-16-20zm-2755-20c9-16 18-30 21-30 2 0-2 14-11 30-9 17-18 30-21 30-2 0 2-13 11-30z"/><path d="M4868 2619c-21-11-38-22-38-24 0-3 18 4 40 15s40 23 40 25c0 7 0 7-42-16zm2586-31c-4-7-3-8 4-4s12 9 12 12c0 8-9 4-16-8zm-2660-14c-18-14-18-15 4-4 12 6 22 13 22 15 0 8-5 6-26-11zm2621-46c-16-24-22-38-14-31 15 12 53 73 46 73-2 0-17-19-32-42zm-805-53c-14-8-20-14-14-15 5 0 19 7 30 15 24 18 16 19-16 0zm749-22c-13-16-12-17 4-4s21 21 13 21c-2 0-10-8-17-17zm-904-44c-27-10-37-17-21-14 31 7 97 33 81 33-5 0-32-8-60-19zm854-16-34-38 38 34c34 33 42 41 34 41-2 0-19-17-38-37zm-1599 0c0-11 3-14 8-7 4 6 14 14 22 17 10 4 8 6-7 6-16 1-23-5-23-16zm58 0c7-3 16-2 19 1 4 3-2 6-13 5-11 0-14-3-6-6zm40-10c7-3 16-2 19 1 4 3-2 6-13 5-11 0-14-3-6-6zm40-10c7-3 16-2 19 1 4 3-2 6-13 5-11 0-14-3-6-6zm-162-69c-9-37-15-68-13-71 3-2 12 26 21 63s15 68 13 71c-3 2-12-26-21-63zm612 59c7-3 16-2 19 1 4 3-2 6-13 5-11 0-14-3-6-6zm-355-10c9-2 25-2 35 0 9 3 1 5-18 5s-27-2-17-5zm280 0c9-2 25-2 35 0 9 3 1 5-18 5s-27-2-17-5zm-165-10c29-2 74-2 100 0s2 3-53 3-76-1-47-3zm1186-24c-16-17-60-56-98-87-104-86-128-109-61-59 61 45 205 176 194 177-3 0-18-14-35-31zm-1584-109c0-7 3-10 7-7 3 4 3 10 0 14-4 3-7 0-7-7zm-10-40c0-7 3-10 7-7 3 4 3 10 0 14-4 3-7 0-7-7zm-9-36c0-11 3-14 6-6 3 7 2 16-1 19-3 4-6-2-5-13zm1334-30c-51-34-69-52-29-29 35 20 82 54 74 55-3 0-23-12-45-26zm-1349-20c-4-14-5-28-3-31 3-2 8 8 11 23 4 14 5 28 3 31-3 2-8-8-11-23zm1212-60c-38-19-68-37-68-39 0-3 32 11 70 30 39 19 70 37 70 40 0 7 3 8-72-31zm-1236-36c-7-28-11-53-8-55 2-2 9 19 16 47s10 53 8 55c-3 3-10-18-16-47zm1128-18c-8-5-10-10-5-10 6 0 17 5 25 10s11 10 5 10c-5 0-17-5-25-10zm-50-20c-8-5-10-10-5-10 6 0 17 5 25 10s11 10 5 10c-5 0-17-5-25-10zm-37-17c4-3 10-3 14 0 3 4 0 7-7 7s-10-3-7-7zm-30-10c4-3 10-3 14 0 3 4 0 7-7 7s-10-3-7-7zm-1020-10c4-3 10-3 14 0 3 4 0 7-7 7s-10-3-7-7zm960-10c4-3 10-3 14 0 3 4 0 7-7 7s-10-3-7-7zm-885-10c7-3 16-2 19 1 4 3-2 6-13 5-11 0-14-3-6-6zm40-10c7-3 16-2 19 1 4 3-2 6-13 5-11 0-14-3-6-6zm40-10c6-2 18-2 25 0 6 3 1 5-13 5s-19-2-12-5zm647-3c-27-7-27-8-5-8 14 0 36 4 50 8 20 6 21 8 5 8-11 0-33-4-50-8zm-580-10c17-4 44-8 60-8 25 0 24 2-10 9-51 10-92 10-50-1zm498-7c9-2 25-2 35 0 9 3 1 5-18 5s-27-2-17-5zm-375-10c12-2 32-2 45 0 12 2 2 4-23 4s-35-2-22-4zm280 0c12-2 32-2 45 0 12 2 2 4-23 4s-35-2-22-4z"/></g><path d="M3248 4873c6-2 18-2 25 0 6 3 1 5-13 5s-19-2-12-5zm412 3c0-2 11-6 25-8 13-3 22-1 19 3-5 9-44 13-44 5zm5708-3c6-2 18-2 25 0 6 3 1 5-13 5s-19-2-12-5zm420 0c6-2 18-2 25 0 6 3 1 5-13 5s-19-2-12-5zm-6578-18c-7-9-11-17-9-20 3-2 10 5 17 15 14 24 10 26-8 5zM1938 3853c7-3 16-2 19 1 4 3-2 6-13 5-11 0-14-3-6-6zm6120 0c7-3 16-2 19 1 4 3-2 6-13 5-11 0-14-3-6-6zm-6168-18c-19-22-8-25 13-3 9 10 13 18 8 18s-14-7-21-15zm2096-8c3-10 9-15 12-12s0 11-7 18c-10 9-11 8-5-6zm4014-17c0-7 3-10 7-7 3 4 3 10 0 14-4 3-7 0-7-7zm-4014-447c-6-14-5-15 5-6 7 7 10 15 7 18s-9-2-12-12zm4014-23c0-7 3-10 7-7 3 4 3 10 0 14-4 3-7 0-7-7zm-5450-30c6-11 13-20 16-20 2 0 0 9-6 20s-13 20-16 20c-2 0 0-9 6-20zm5515-90c3-5 8-10 11-10s2 5-1 10c-3 6-8 10-11 10s-2-4 1-10zm680-30c3-5 8-10 11-10s2 5-1 10c-3 6-8 10-11 10s-2-4 1-10zm-6760-40c3-5 8-10 11-10s2 5-1 10c-3 6-8 10-11 10s-2-4 1-10zm680-30c3-5 8-10 11-10s2 5-1 10c-3 6-8 10-11 10s-2-4 1-10zm5480-30c3-5 8-10 11-10s2 5-1 10c-3 6-8 10-11 10s-2-4 1-10zm685-40c6-11 13-20 16-20 2 0 0 9-6 20s-13 20-16 20c-2 0 0-9 6-20zm-6765-30c3-5 8-10 11-10s2 5-1 10c-3 6-8 10-11 10s-2-4 1-10zm660 0c3-5 8-10 11-10s2 5-1 10c-3 6-8 10-11 10s-2-4 1-10zm6135-20c6-11 13-20 16-20 2 0 0 9-6 20s-13 20-16 20c-2 0 0-9 6-20zm-6105-30c3-5 8-10 11-10s2 5-1 10c-3 6-8 10-11 10s-2-4 1-10zm5470-10c3-5 8-10 11-10s2 5-1 10c-3 6-8 10-11 10s-2-4 1-10zm-6110-20c3-5 8-10 11-10s2 5-1 10c-3 6-8 10-11 10s-2-4 1-10zm665-10c6-11 13-20 16-20 2 0 0 9-6 20s-13 20-16 20c-2 0 0-9 6-20zm5470-10c6-11 13-20 16-20 2 0 0 9-6 20s-13 20-16 20c-2 0 0-9 6-20zm670-20c6-11 13-20 16-20 2 0 0 9-6 20s-13 20-16 20c-2 0 0-9 6-20zm-6775-10c3-5 8-10 11-10s2 5-1 10c-3 6-8 10-11 10s-2-4 1-10zm25-40c6-11 13-20 16-20 2 0 0 9-6 20s-13 20-16 20c-2 0 0-9 6-20zm670-20c6-11 13-20 16-20 2 0 0 9-6 20s-13 20-16 20c-2 0 0-9 6-20zm886-57c-6-14-5-15 5-6 7 7 10 15 7 18s-9-2-12-12zm-526 0c0-6 8-17 18-24 16-13 16-13 2 6-8 11-16 22-17 24-2 2-3 0-3-6zm-950-53c6-11 13-20 16-20 2 0 0 9-6 20s-13 20-16 20c-2 0 0-9 6-20zm993 13c4-3 10-3 14 0 3 4 0 7-7 7s-10-3-7-7zm5792-23c3-5 8-10 11-10s2 5-1 10c-3 6-8 10-11 10s-2-4 1-10zm-6105-30c6-11 13-20 16-20 2 0 0 9-6 20s-13 20-16 20c-2 0 0-9 6-20zm25-40c3-5 8-10 11-10s2 5-1 10c-3 6-8 10-11 10s-2-4 1-10zm5480-20c3-5 8-10 11-10s2 5-1 10c-3 6-8 10-11 10s-2-4 1-10zm660-10c3-5 8-10 11-10s2 5-1 10c-3 6-8 10-11 10s-2-4 1-10zm-6765-20c6-11 13-20 16-20 2 0 0 9-6 20s-13 20-16 20c-2 0 0-9 6-20zm6795-30c3-5 8-10 11-10s2 5-1 10c-3 6-8 10-11 10s-2-4 1-10zm-6770-10c3-5 8-10 11-10s2 5-1 10c-3 6-8 10-11 10s-2-4 1-10zm6795-30c6-11 13-20 16-20 2 0 0 9-6 20s-13 20-16 20c-2 0 0-9 6-20zm-6770-10c6-11 13-20 16-20 2 0 0 9-6 20s-13 20-16 20c-2 0 0-9 6-20zm665-20c3-5 8-10 11-10s2 5-1 10c-3 6-8 10-11 10s-2-4 1-10zm5470 0c3-5 8-10 11-10s2 5-1 10c-3 6-8 10-11 10s-2-4 1-10zm-6105-30c6-11 13-20 16-20 2 0 0 9-6 20s-13 20-16 20c-2 0 0-9 6-20zm6800-40c6-11 13-20 16-20 2 0 0 9-6 20s-13 20-16 20c-2 0 0-9 6-20zm-6775 0c3-5 8-10 11-10s2 5-1 10c-3 6-8 10-11 10s-2-4 1-10zm6130-10c3-5 8-10 11-10s2 5-1 10c-3 6-8 10-11 10s-2-4 1-10zm-6105-30c6-11 13-20 16-20 2 0 0 9-6 20s-13 20-16 20c-2 0 0-9 6-20zm645 10c3-5 8-10 11-10s2 5-1 10c-3 6-8 10-11 10s-2-4 1-10zm6135-20c6-11 13-20 16-20 2 0 0 9-6 20s-13 20-16 20c-2 0 0-9 6-20zm-6110-20c6-11 13-20 16-20 2 0 0 9-6 20s-13 20-16 20c-2 0 0-9 6-20zm5465 10c3-5 8-10 11-10s2 5-1 10c-3 6-8 10-11 10s-2-4 1-10zm-6110-20c3-5 8-10 11-10s2 5-1 10c-3 6-8 10-11 10s-2-4 1-10zm6135-20c6-11 13-20 16-20 2 0 0 9-6 20s-13 20-16 20c-2 0 0-9 6-20zm-6105-30c3-5 8-10 11-10s2 5-1 10c-3 6-8 10-11 10s-2-4 1-10zm650 0c3-5 8-10 11-10s2 5-1 10c-3 6-8 10-11 10s-2-4 1-10zm6135-20c6-11 13-20 16-20 2 0 0 9-6 20s-13 20-16 20c-2 0 0-9 6-20zm-6760-20c6-11 13-20 16-20 2 0 0 9-6 20s-13 20-16 20c-2 0 0-9 6-20zm25-40c3-5 8-10 11-10s2 5-1 10c-3 6-8 10-11 10s-2-4 1-10zm655-10c6-11 13-20 16-20 2 0 0 9-6 20s-13 20-16 20c-2 0 0-9 6-20zm5480-10c6-11 13-20 16-20 2 0 0 9-6 20s-13 20-16 20c-2 0 0-9 6-20zm-6080-70c6-11 13-20 16-20 2 0 0 9-6 20s-13 20-16 20c-2 0 0-9 6-20zm660-20c6-11 13-20 16-20 2 0 0 9-6 20s-13 20-16 20c-2 0 0-9 6-20zm-635-20c3-5 8-10 11-10s2 5-1 10c-3 6-8 10-11 10s-2-4 1-10zm6770 0c3-5 8-10 11-10s2 5-1 10c-3 6-8 10-11 10s-2-4 1-10zm-6105-30c6-11 13-20 16-20 2 0 0 9-6 20s-13 20-16 20c-2 0 0-9 6-20zm5495-30c3-5 8-10 11-10s2 5-1 10c-3 6-8 10-11 10s-2-4 1-10zm-6105-30c6-11 13-20 16-20 2 0 0 9-6 20s-13 20-16 20c-2 0 0-9 6-20zm6775-10c3-5 8-10 11-10s2 5-1 10c-3 6-8 10-11 10s-2-4 1-10zm-6105-30c6-11 13-20 16-20 2 0 0 9-6 20s-13 20-16 20c-2 0 0-9 6-20zm-645 0c3-5 8-10 11-10s2 5-1 10c-3 6-8 10-11 10s-2-4 1-10zm6135-20c6-11 13-20 16-20 2 0 0 9-6 20s-13 20-16 20c-2 0 0-9 6-20zm645 0c3-5 8-10 11-10s2 5-1 10c-3 6-8 10-11 10s-2-4 1-10zm-6110-20c3-5 8-10 11-10s2 5-1 10c-3 6-8 10-11 10s-2-4 1-10zm6135-20c6-11 13-20 16-20 2 0 0 9-6 20s-13 20-16 20c-2 0 0-9 6-20zm-645 0c3-5 8-10 11-10s2 5-1 10c-3 6-8 10-11 10s-2-4 1-10zm-6105-30c6-11 13-20 16-20 2 0 0 9-6 20s-13 20-16 20c-2 0 0-9 6-20zm6130-10c6-11 13-20 16-20 2 0 0 9-6 20s-13 20-16 20c-2 0 0-9 6-20zm-6105-30c3-5 8-10 11-10s2 5-1 10c-3 6-8 10-11 10s-2-4 1-10zm6130-10c3-5 8-10 11-10s2 5-1 10c-3 6-8 10-11 10s-2-4 1-10zm655-20c6-11 13-20 16-20 2 0 0 9-6 20s-13 20-16 20c-2 0 0-9 6-20zm-6760-10c6-11 13-20 16-20 2 0 0 9-6 20s-13 20-16 20c-2 0 0-9 6-20zm6135-20c3-5 8-10 11-10s2 5-1 10c-3 6-8 10-11 10s-2-4 1-10zm25-40c6-11 13-20 16-20 2 0 0 9-6 20s-13 20-16 20c-2 0 0-9 6-20zm25-40c3-5 8-10 11-10s2 5-1 10c-3 6-8 10-11 10s-2-4 1-10zm-6105-30c6-11 13-20 16-20 2 0 0 9-6 20s-13 20-16 20c-2 0 0-9 6-20zm635 10c3-5 8-10 11-10s2 5-1 10c-3 6-8 10-11 10s-2-4 1-10zm6135-20c6-11 13-20 16-20 2 0 0 9-6 20s-13 20-16 20c-2 0 0-9 6-20zm-610-50c6-11 13-20 16-20 2 0 0 9-6 20s-13 20-16 20c-2 0 0-9 6-20zm635 10c3-5 8-10 11-10s2 5-1 10c-3 6-8 10-11 10s-2-4 1-10zm-6105-30c6-11 13-20 16-20 2 0 0 9-6 20s-13 20-16 20c-2 0 0-9 6-20zm5495-20c3-5 8-10 11-10s2 5-1 10c-3 6-8 10-11 10s-2-4 1-10zm-6105-30c6-11 13-20 16-20 2 0 0 9-6 20s-13 20-16 20c-2 0 0-9 6-20zm640-10c0-7 3-10 7-7 3 4 3 10 0 14-4 3-7 0-7-7zm5501-17c7-12 15-20 18-17 3 2-3 12-13 22-17 16-18 16-5-5zm-5512-30c-13-16-12-17 4-4 9 7 17 15 17 17 0 8-8 3-21-13zm-411-20c72-2 192-2 265 0 72 1 13 3-133 3s-205-2-132-3zm6120 0c72-2 192-2 265 0 72 1 13 3-133 3s-205-2-132-3z" fill="#827e7e"/><path d="M3243 4873c4-3 10-3 14 0 3 4 0 7-7 7s-10-3-7-7zm427 3c0-2 9-6 20-9s18-1 14 4c-5 9-34 13-34 5zm5698-3c7-3 16-2 19 1 4 3-2 6-13 5-11 0-14-3-6-6zm430 0c7-3 16-2 19 1 4 3-2 6-13 5-11 0-14-3-6-6zm-6589-20c-13-16-12-17 4-4 9 7 17 15 17 17 0 8-8 3-21-13zM1933 3853c4-3 10-3 14 0 3 4 0 7-7 7s-10-3-7-7zm6120 0c4-3 10-3 14 0 3 4 0 7-7 7s-10-3-7-7zm-6163-18c-7-9-11-17-9-20 3-2 10 5 17 15 14 24 10 26-8 5zm-10-505c0-7 3-10 7-7 3 4 3 10 0 14-4 3-7 0-7-7zm8033-7c32-2 81-2 110 0s3 3-58 3c-60 0-84-1-52-3zm-1903-9c0-6 7-19 16-30 14-18 14-18 3 6-14 31-19 36-19 24zm675-24c3-5 8-10 11-10s2 5-1 10c-3 6-8 10-11 10s-2-4 1-10zm-640-40c3-5 8-10 11-10s2 5-1 10c-3 6-8 10-11 10s-2-4 1-10zm670-10c3-5 8-10 11-10s2 5-1 10c-3 6-8 10-11 10s-2-4 1-10zm-6780-10c3-5 8-10 11-10s2 5-1 10c-3 6-8 10-11 10s-2-4 1-10zm670-10c3-5 8-10 11-10s2 5-1 10c-3 6-8 10-11 10s-2-4 1-10zm-640-40c3-5 8-10 11-10s2 5-1 10c-3 6-8 10-11 10s-2-4 1-10zm670-10c3-5 8-10 11-10s2 5-1 10c-3 6-8 10-11 10s-2-4 1-10zm5460 0c3-5 8-10 11-10s2 5-1 10c-3 6-8 10-11 10s-2-4 1-10zm675-20c6-11 13-20 16-20 2 0 0 9-6 20s-13 20-16 20c-2 0 0-9 6-20zm-645-30c3-5 8-10 11-10s2 5-1 10c-3 6-8 10-11 10s-2-4 1-10zm-6110-20c3-5 8-10 11-10s2 5-1 10c-3 6-8 10-11 10s-2-4 1-10zm680-30c3-5 8-10 11-10s2 5-1 10c-3 6-8 10-11 10s-2-4 1-10zm-650-20c3-5 8-10 11-10s2 5-1 10c-3 6-8 10-11 10s-2-4 1-10zm6130-10c3-5 8-10 11-10s2 5-1 10c-3 6-8 10-11 10s-2-4 1-10zm680-30c3-5 8-10 11-10s2 5-1 10c-3 6-8 10-11 10s-2-4 1-10zm-6760-40c3-5 8-10 11-10s2 5-1 10c-3 6-8 10-11 10s-2-4 1-10zm6160-60c3-5 8-10 11-10s2 5-1 10c-3 6-8 10-11 10s-2-4 1-10zm660 0c3-5 8-10 11-10s2 5-1 10c-3 6-8 10-11 10s-2-4 1-10zm30-50c3-5 8-10 11-10s2 5-1 10c-3 6-8 10-11 10s-2-4 1-10zm-640-30c3-5 8-10 11-10s2 5-1 10c-3 6-8 10-11 10s-2-4 1-10zm670-20c3-5 8-10 11-10s2 5-1 10c-3 6-8 10-11 10s-2-4 1-10zm-6110-20c3-5 8-10 11-10s2 5-1 10c-3 6-8 10-11 10s-2-4 1-10zm5470-10c3-5 8-10 11-10s2 5-1 10c-3 6-8 10-11 10s-2-4 1-10zm-6110-20c3-5 8-10 11-10s2 5-1 10c-3 6-8 10-11 10s-2-4 1-10zm6780 0c3-5 8-10 11-10s2 5-1 10c-3 6-8 10-11 10s-2-4 1-10zm-6110-20c3-5 8-10 11-10s2 5-1 10c-3 6-8 10-11 10s-2-4 1-10zm6468-7c4-3 10-3 14 0 3 4 0 7-7 7s-10-3-7-7zm440 0c4-3 10-3 14 0 3 4 0 7-7 7s-10-3-7-7zm-1418-33c3-5 8-10 11-10s2 5-1 10c-3 6-8 10-11 10s-2-4 1-10zm-5460-10c3-5 8-10 11-10s2 5-1 10c-3 6-8 10-11 10s-2-4 1-10zm6135-20c6-11 13-20 16-20 2 0 0 9-6 20s-13 20-16 20c-2 0 0-9 6-20zm-645-20c3-5 8-10 11-10s2 5-1 10c-3 6-8 10-11 10s-2-4 1-10zm-6110-20c3-5 8-10 11-10s2 5-1 10c-3 6-8 10-11 10s-2-4 1-10zm680-40c3-5 8-10 11-10s2 5-1 10c-3 6-8 10-11 10s-2-4 1-10zm5480-20c3-5 8-10 11-10s2 5-1 10c-3 6-8 10-11 10s-2-4 1-10zm-5450-30c3-5 8-10 11-10s2 5-1 10c-3 6-8 10-11 10s-2-4 1-10zm5480-20c3-5 8-10 11-10s2 5-1 10c-3 6-8 10-11 10s-2-4 1-10zm-6110-20c3-5 8-10 11-10s2 5-1 10c-3 6-8 10-11 10s-2-4 1-10zm690-60c3-5 8-10 11-10s2 5-1 10c-3 6-8 10-11 10s-2-4 1-10zm5470 0c3-5 8-10 11-10s2 5-1 10c-3 6-8 10-11 10s-2-4 1-10zm690-60c3-5 8-10 11-10s2 5-1 10c-3 6-8 10-11 10s-2-4 1-10zm30-50c3-5 8-10 11-10s2 5-1 10c-3 6-8 10-11 10s-2-4 1-10zm-640-20c3-5 8-10 11-10s2 5-1 10c-3 6-8 10-11 10s-2-4 1-10zm670-30c3-5 8-10 11-10s2 5-1 10c-3 6-8 10-11 10s-2-4 1-10zm-620-50c3-5 8-10 11-10s2 5-1 10c-3 6-8 10-11 10s-2-4 1-10zm680-50c3-5 8-10 11-10s2 5-1 10c-3 6-8 10-11 10s-2-4 1-10zm-6760-20c3-5 8-10 11-10s2 5-1 10c-3 6-8 10-11 10s-2-4 1-10zm6790-30c3-5 8-10 11-10s2 5-1 10c-3 6-8 10-11 10s-2-4 1-10zm-6110-20c3-5 8-10 11-10s2 5-1 10c-3 6-8 10-11 10s-2-4 1-10zm5480-10c3-5 8-10 11-10s2 5-1 10c-3 6-8 10-11 10s-2-4 1-10zm-5450-40c3-5 8-10 11-10s2 5-1 10c-3 6-8 10-11 10s-2-4 1-10zm-630-30c3-5 8-10 11-10s2 5-1 10c-3 6-8 10-11 10s-2-4 1-10zm6770 0c3-5 8-10 11-10s2 5-1 10c-3 6-8 10-11 10s-2-4 1-10zm-6110-20c3-5 8-10 11-10s2 5-1 10c-3 6-8 10-11 10s-2-4 1-10zm5500-40c3-5 8-10 11-10s2 5-1 10c-3 6-8 10-11 10s-2-4 1-10zm-5470-10c3-5 8-10 11-10s2 5-1 10c-3 6-8 10-11 10s-2-4 1-10zm-610-60c3-5 8-10 11-10s2 5-1 10c-3 6-8 10-11 10s-2-4 1-10zm670-40c3-5 8-10 11-10s2 5-1 10c-3 6-8 10-11 10s-2-4 1-10zm5490-20c3-5 8-10 11-10s2 5-1 10c-3 6-8 10-11 10s-2-4 1-10zm-5460-30c3-5 8-10 11-10s2 5-1 10c-3 6-8 10-11 10s-2-4 1-10zm6130-10c3-5 8-10 11-10s2 5-1 10c-3 6-8 10-11 10s-2-4 1-10zm30-50c3-5 8-10 11-10s2 5-1 10c-3 6-8 10-11 10s-2-4 1-10zm-6760-10c3-5 8-10 11-10s2 5-1 10c-3 6-8 10-11 10s-2-4 1-10zm655-20c6-11 13-20 16-20 2 0 0 9-6 20s-13 20-16 20c-2 0 0-9 6-20zm6135-20c3-5 8-10 11-10s2 5-1 10c-3 6-8 10-11 10s-2-4 1-10zm30-50c3-5 8-10 11-10s2 5-1 10c-3 6-8 10-11 10s-2-4 1-10zm-630-20c3-5 8-10 11-10s2 5-1 10c-3 6-8 10-11 10s-2-4 1-10zm-6110-20c3-5 8-10 11-10s2 5-1 10c-3 6-8 10-11 10s-2-4 1-10zm30-50c3-5 8-10 11-10s2 5-1 10c-3 6-8 10-11 10s-2-4 1-10zm6770-10c3-5 8-10 11-10s2 5-1 10c-3 6-8 10-11 10s-2-4 1-10zm15-30c0-7 3-10 7-7 3 4 3 10 0 14-4 3-7 0-7-7zm-625-20c3-5 8-10 11-10s2 5-1 10c-3 6-8 10-11 10s-2-4 1-10zm-6037-57c7-3 16-2 19 1 4 3-2 6-13 5-11 0-14-3-6-6zm490 0c7-3 16-2 19 1 4 3-2 6-13 5-11 0-14-3-6-6zm6120 0c7-3 16-2 19 1 4 3-2 6-13 5-11 0-14-3-6-6z" fill="#939090"/><path d="M5998 5053c12-2 32-2 45 0 12 2 2 4-23 4s-35-2-22-4zm165 0c15-2 37-2 50 0 12 2 0 4-28 4-27 0-38-2-22-4zm-270-10c9-2 23-2 30 0 6 3-1 5-18 5-16 0-22-2-12-5zm395 0c6-2 18-2 25 0 6 3 1 5-13 5s-19-2-12-5zm-460-10c7-3 16-2 19 1 4 3-2 6-13 5-11 0-14-3-6-6zm530 0c6-2 18-2 25 0 6 3 1 5-13 5s-19-2-12-5zm-590-10c7-3 16-2 19 1 4 3-2 6-13 5-11 0-14-3-6-6zm650 0c7-3 16-2 19 1 4 3-2 6-13 5-11 0-14-3-6-6zm-690-10c7-3 16-2 19 1 4 3-2 6-13 5-11 0-14-3-6-6zm735 0c4-3 10-3 14 0 3 4 0 7-7 7s-10-3-7-7zm-775-10c7-3 16-2 19 1 4 3-2 6-13 5-11 0-14-3-6-6zm815 0c4-3 10-3 14 0 3 4 0 7-7 7s-10-3-7-7zm-850-10c4-3 10-3 14 0 3 4 0 7-7 7s-10-3-7-7zm950-20c4-3 10-3 14 0 3 4 0 7-7 7s-10-3-7-7zm30-10c4-3 10-3 14 0 3 4 0 7-7 7s-10-3-7-7zm-1100-10c4-3 10-3 14 0 3 4 0 7-7 7s-10-3-7-7zm-30-10c4-3 10-3 14 0 3 4 0 7-7 7s-10-3-7-7zm1180 0c4-3 10-3 14 0 3 4 0 7-7 7s-10-3-7-7zm50-20c4-3 10-3 14 0 3 4 0 7-7 7s-10-3-7-7zm-1375-44c-21-11-38-22-38-24 0-3 18 4 40 15s40 23 40 25c0 7 0 7-42-16zm1527-29c3-5 8-10 11-10s2 5-1 10c-3 6-8 10-11 10s-2-4 1-10zm-1611-22c-4-7-3-8 4-4s12 9 12 12c0 8-9 4-16-8zm1661-8c3-5 8-10 11-10s2 5-1 10c-3 6-8 10-11 10s-2-4 1-10zm-1711-22c-4-7-3-8 4-4s12 9 12 12c0 8-9 4-16-8zm1736 8c0-3 9-10 20-16s20-8 20-6c0 3-9 10-20 16s-20 8-20 6zm-1766-28c-4-7-3-8 4-4 12 7 16 16 8 16-3 0-8-5-12-12zm1831-18c3-5 8-10 11-10s2 5-1 10c-3 6-8 10-11 10s-2-4 1-10zm-1871-12c-4-7-3-8 4-4 12 7 16 16 8 16-3 0-8-5-12-12zm1896-2c0-2 8-10 18-17 15-13 16-12 3 4s-21 21-21 13zm-1931-23c-13-16-12-17 4-4 9 7 17 15 17 17 0 8-8 3-21-13zm1971-7c0-2 8-10 18-17 15-13 16-12 3 4s-21 21-21 13zm-2026-38-19-23 23 19c21 18 27 26 19 26-2 0-12-10-23-22zm2166-93c47-47 87-85 90-85 2 0-33 38-80 85s-87 85-90 85c-2 0 33-38 80-85zm-2270 0c-24-25-42-45-39-45s25 20 49 45 42 45 39 45-25-20-49-45zm1088-42c28-2 76-2 105 0 28 2 5 3-53 3s-81-1-52-3zm-110-10c7-3 16-2 19 1 4 3-2 6-13 5-11 0-14-3-6-6zm320 0c7-3 16-2 19 1 4 3-2 6-13 5-11 0-14-3-6-6zm-385-10c4-3 10-3 14 0 3 4 0 7-7 7s-10-3-7-7zm440 0c4-3 10-3 14 0 3 4 0 7-7 7s-10-3-7-7zm-480-10c4-3 10-3 14 0 3 4 0 7-7 7s-10-3-7-7zm525 0c7-3 16-2 19 1 4 3-2 6-13 5-11 0-14-3-6-6zm-1484-25-19-23 23 19c21 18 27 26 19 26-2 0-12-10-23-22zm919 15c4-3 10-3 14 0 3 4 0 7-7 7s-10-3-7-7zm600 0c4-3 10-3 14 0 3 4 0 7-7 7s-10-3-7-7zm-630-10c4-3 10-3 14 0 3 4 0 7-7 7s-10-3-7-7zm665 0c7-3 16-2 19 1 4 3-2 6-13 5-11 0-14-3-6-6zm-695-10c4-3 10-3 14 0 3 4 0 7-7 7s-10-3-7-7zm1612-23c10-11 20-20 23-20s-3 9-13 20-20 20-23 20 3-9 13-20zm-2526-37c-13-16-12-17 4-4s21 21 13 21c-2 0-10-8-17-17zm775 1c-18-14-18-14 6-3 31 14 36 19 24 19-6 0-19-7-30-16zm1776 2c0-2 8-10 18-17 15-13 16-12 3 4s-21 21-21 13zm-725-26c3-5 8-10 11-10s2 5-1 10c-3 6-8 10-11 10s-2-4 1-10zm-1851-12c-4-7-3-8 4-4s12 9 12 12c0 8-9 4-16-8zm2606-2c0-2 8-10 18-17 15-13 16-12 3 4s-21 21-21 13zm-705-16c3-5 8-10 11-10s2 5-1 10c-3 6-8 10-11 10s-2-4 1-10zm-1921-12c-4-7-3-8 4-4 12 7 16 16 8 16-3 0-8-5-12-12zm710 0c-4-7-3-8 4-4s12 9 12 12c0 8-9 4-16-8zm-35-25c-13-16-12-17 4-4 9 7 17 15 17 17 0 8-8 3-21-13zm1286 7c3-5 8-10 11-10s2 5-1 10c-3 6-8 10-11 10s-2-4 1-10zm30-20c3-5 8-10 11-10s2 5-1 10c-3 6-8 10-11 10s-2-4 1-10zm-1366-27c-13-16-12-17 4-4 9 7 17 15 17 17 0 8-8 3-21-13zm1466-63c33-33 62-60 64-60 3 0-21 27-54 60s-62 60-64 60c-3 0 21-27 54-60zm-2155 30c-6-11-8-20-6-20 3 0 10 9 16 20s8 20 6 20c-3 0-10-9-16-20zm609-37-34-38 38 34c34 33 42 41 34 41-2 0-19-17-38-37zm2176 17c3-5 8-10 11-10s2 5-1 10c-3 6-8 10-11 10s-2-4 1-10zm-2246-97c-13-16-12-17 4-4 9 7 17 15 17 17 0 8-8 3-21-13zm1701-7c0-2 8-10 18-17 15-13 16-12 3 4s-21 21-21 13zm-1736-38c-4-7-3-8 4-4s12 9 12 12c0 8-9 4-16-8zm1766-2c0-2 8-10 18-17 15-13 16-12 3 4s-21 21-21 13zm590-1c0-5 5-17 10-25s10-10 10-5c0 6-5 17-10 25s-10 11-10 5zm-2386-37c-4-7-3-8 4-4s12 9 12 12c0 8-9 4-16-8zm1831-8c3-5 8-10 11-10s2 5-1 10c-3 6-8 10-11 10s-2-4 1-10zm-1861-42c-4-7-3-8 4-4 12 7 16 16 8 16-3 0-8-5-12-12zm1891-8c3-5 8-10 11-10s2 5-1 10c-3 6-8 10-11 10s-2-4 1-10zm565-10c0-7 3-10 7-7 3 4 3 10 0 14-4 3-7 0-7-7zm-3030-10c0-7 3-10 7-7 3 4 3 10 0 14-4 3-7 0-7-7zm3040-20c0-7 3-10 7-7 3 4 3 10 0 14-4 3-7 0-7-7zm-3050-10c0-7 3-10 7-7 3 4 3 10 0 14-4 3-7 0-7-7zm3060-20c0-7 3-10 7-7 3 4 3 10 0 14-4 3-7 0-7-7zm-3070-10c0-7 3-10 7-7 3 4 3 10 0 14-4 3-7 0-7-7zm3080-20c0-7 3-10 7-7 3 4 3 10 0 14-4 3-7 0-7-7zm-3090-20c0-7 3-10 7-7 3 4 3 10 0 14-4 3-7 0-7-7zm2560-10c0-7 3-10 7-7 3 4 3 10 0 14-4 3-7 0-7-7zm-2030-10c0-7 3-10 7-7 3 4 3 10 0 14-4 3-7 0-7-7zm2570 0c0-7 3-10 7-7 3 4 3 10 0 14-4 3-7 0-7-7zm-3110-10c0-7 3-10 7-7 3 4 3 10 0 14-4 3-7 0-7-7zm2590-30c0-7 3-10 7-7 3 4 3 10 0 14-4 3-7 0-7-7zm530 0c0-7 3-10 7-7 3 4 3 10 0 14-4 3-7 0-7-7zm-520-30c0-7 3-10 7-7 3 4 3 10 0 14-4 3-7 0-7-7zm530-10c0-7 3-10 7-7 3 4 3 10 0 14-4 3-7 0-7-7zm-3149-26c0-11 3-14 6-6 3 7 2 16-1 19-3 4-6-2-5-13zm519-14c0-7 3-10 7-7 3 4 3 10 0 14-4 3-7 0-7-7zm2120-20c0-7 3-10 7-7 3 4 3 10 0 14-4 3-7 0-7-7zm-2648-20c0-14 2-19 5-12 2 6 2 18 0 25-3 6-5 1-5-13zm519 4c0-11 3-14 6-6 3 7 2 16-1 19-3 4-6-2-5-13zm2139-24c0-7 3-10 7-7 3 4 3 10 0 14-4 3-7 0-7-7zm-2149-26c0-11 3-14 6-6 3 7 2 16-1 19-3 4-6-2-5-13zm2670 0c0-11 3-14 6-6 3 7 2 16-1 19-3 4-6-2-5-13zm-3189-24c0-19 2-27 5-17 2 9 2 25 0 35-3 9-5 1-5-18zm2679-6c0-11 3-14 6-6 3 7 2 16-1 19-3 4-6-2-5-13zm-2169-29c0-16 2-22 5-12 2 9 2 23 0 30-3 6-5-1-5-18zm2691-45c0-30 2-43 4-27 2 15 2 39 0 55-2 15-4 2-4-28zm-510-15c0-27 2-38 4-22 2 15 2 37 0 50-2 12-4 0-4-28zm-2699-85c0-58 1-81 3-52 2 28 2 76 0 105-2 28-3 5-3-53zm510 0c0-52 1-74 3-47 2 26 2 68 0 95-2 26-3 4-3-48zm2189-85c0-27 2-38 4-22 2 15 2 37 0 50-2 12-4 0-4-28zm510-20c0-27 2-38 4-22 2 15 2 37 0 50-2 12-4 0-4-28zm-2691-40c0-16 2-22 5-12 2 9 2 23 0 30-3 6-5-1-5-18zm-510-35c0-19 2-27 5-17 2 9 2 25 0 35-3 9-5 1-5-18zm2679-6c0-11 3-14 6-6 3 7 2 16-1 19-3 4-6-2-5-13zm511-24c0-14 2-19 5-12 2 6 2 18 0 25-3 6-5 1-5-13zm-2671-6c0-11 3-14 6-6 3 7 2 16-1 19-3 4-6-2-5-13zm2150-20c0-11 3-14 6-6 3 7 2 16-1 19-3 4-6-2-5-13zm-2660-20c0-11 3-14 6-6 3 7 2 16-1 19-3 4-6-2-5-13zm519-4c0-7 3-10 7-7 3 4 3 10 0 14-4 3-7 0-7-7zm2650-20c0-7 3-10 7-7 3 4 3 10 0 14-4 3-7 0-7-7zm-2640-20c0-7 3-10 7-7 3 4 3 10 0 14-4 3-7 0-7-7zm-520-10c0-7 3-10 7-7 3 4 3 10 0 14-4 3-7 0-7-7zm2630 0c0-7 3-10 7-7 3 4 3 10 0 14-4 3-7 0-7-7zm-2100-20c0-7 3-10 7-7 3 4 3 10 0 14-4 3-7 0-7-7zm2620 0c0-7 3-10 7-7 3 4 3 10 0 14-4 3-7 0-7-7zm-540-40c0-7 3-10 7-7 3 4 3 10 0 14-4 3-7 0-7-7zm531-6c0-11 3-14 6-6 3 7 2 16-1 19-3 4-6-2-5-13zm-2591-14c0-7 3-10 7-7 3 4 3 10 0 14-4 3-7 0-7-7zm-530-10c0-7 3-10 7-7 3 4 3 10 0 14-4 3-7 0-7-7zm2580 0c0-7 3-10 7-7 3 4 3 10 0 14-4 3-7 0-7-7zm531-16c0-11 3-14 6-6 3 7 2 16-1 19-3 4-6-2-5-13zm-3101-24c0-7 3-10 7-7 3 4 3 10 0 14-4 3-7 0-7-7zm540 5c0-5 5-17 10-25s10-10 10-5c0 6-5 17-10 25s-10 11-10 5zm2550-15c0-7 3-10 7-7 3 4 3 10 0 14-4 3-7 0-7-7zm-3080-20c0-7 3-10 7-7 3 4 3 10 0 14-4 3-7 0-7-7zm3070-20c0-7 3-10 7-7 3 4 3 10 0 14-4 3-7 0-7-7zm-3060-10c0-7 3-10 7-7 3 4 3 10 0 14-4 3-7 0-7-7zm2494-22c-4-7-3-8 4-4s12 9 12 12c0 8-9 4-16-8zm-2474-38c0-7 3-10 7-7 3 4 3 10 0 14-4 3-7 0-7-7zm2434-32c-4-7-3-8 4-4 12 7 16 16 8 16-3 0-8-5-12-12zm-1844-18c6-11 13-20 16-20 2 0 0 9-6 20s-13 20-16 20c-2 0 0-9 6-20zm2410 10c0-7 3-10 7-7 3 4 3 10 0 14-4 3-7 0-7-7zm-586-22c-4-7-3-8 4-4s12 9 12 12c0 8-9 4-16-8zm-25-35c-13-16-12-17 4-4s21 21 13 21c-2 0-10-8-17-17zm-2349 2c0-5 5-17 10-25s10-10 10-5c0 6-5 17-10 25s-10 11-10 5zm2926-22c-6-14-5-15 5-6 7 7 10 15 7 18s-9-2-12-12zm-2422-5c-4-7-3-8 4-4s12 9 12 12c0 8-9 4-16-8zm1815-15c-13-16-12-17 4-4 9 7 17 15 17 17 0 8-8 3-21-13zm-1945-59c-18-14-18-15 4-4 12 6 22 13 22 15 0 8-5 6-26-11zm1885-11-24-28 28 24c15 14 27 26 27 28 0 8-8 1-31-24zm625 5c-4-7-3-8 4-4s12 9 12 12c0 8-9 4-16-8zm-2570-30c-4-7-3-8 4-4s12 9 12 12c0 8-9 4-16-8zm-60-34c-18-14-18-15 4-4 12 6 22 13 22 15 0 8-5 6-26-11zm2590-6c-4-7-3-8 4-4s12 9 12 12c0 8-9 4-16-8zm-2744-18c6-11 13-20 16-20 2 0 0 9-6 20s-13 20-16 20c-2 0 0-9 6-20zm2064-2-19-23 23 19c21 18 27 26 19 26-2 0-12-10-23-22zm-2039-38c3-5 8-10 11-10s2 5-1 10c-3 6-8 10-11 10s-2-4 1-10zm1989-2c-4-7-3-8 4-4s12 9 12 12c0 8-9 4-16-8zm-30-20c-4-7-3-8 4-4s12 9 12 12c0 8-9 4-16-8zm710 0c-4-7-3-8 4-4s12 9 12 12c0 8-9 4-16-8zm-740-20c-4-7-3-8 4-4s12 9 12 12c0 8-9 4-16-8zm715-15c-13-16-12-17 4-4s21 21 13 21c-2 0-10-8-17-17zm-745-5c-4-7-3-8 4-4 12 7 16 16 8 16-3 0-8-5-12-12zm710-40c-4-7-3-8 4-4s12 9 12 12c0 8-9 4-16-8zm-40-50-19-23 23 19c12 11 22 21 22 23 0 8-8 2-26-19zm-851 5c4-3 10-3 14 0 3 4 0 7-7 7s-10-3-7-7zm-763-13c0-7 3-10 7-7 3 4 3 10 0 14-4 3-7 0-7-7zm23 3c4-3 10-3 14 0 3 4 0 7-7 7s-10-3-7-7zm710 0c4-3 10-3 14 0 3 4 0 7-7 7s-10-3-7-7zm-670-10c4-3 10-3 14 0 3 4 0 7-7 7s-10-3-7-7zm640 0c4-3 10-3 14 0 3 4 0 7-7 7s-10-3-7-7zm-600-10c4-3 10-3 14 0 3 4 0 7-7 7s-10-3-7-7zm570 0c4-3 10-3 14 0 3 4 0 7-7 7s-10-3-7-7zm-530-10c4-3 10-3 14 0 3 4 0 7-7 7s-10-3-7-7zm485 0c7-3 16-2 19 1 4 3-2 6-13 5-11 0-14-3-6-6zm-638-13c0-7 3-10 7-7 3 4 3 10 0 14-4 3-7 0-7-7zm198 3c7-3 16-2 19 1 4 3-2 6-13 5-11 0-14-3-6-6zm395 0c4-3 10-3 14 0 3 4 0 7-7 7s-10-3-7-7zm-335-10c6-2 18-2 25 0 6 3 1 5-13 5s-19-2-12-5zm260 0c6-2 18-2 25 0 6 3 1 5-13 5s-19-2-12-5zm-130-10c12-2 30-2 40 0 9 3-1 5-23 4-22 0-30-2-17-4zm1137-45-50-53 53 50c48 46 57 55 49 55-1 0-25-24-52-52zm-1534 26c0-11 3-14 6-6 3 7 2 16-1 19-3 4-6-2-5-13zm-11-34c0-7 3-10 7-7 3 4 3 10 0 14-4 3-7 0-7-7zm-10-40c0-7 3-10 7-7 3 4 3 10 0 14-4 3-7 0-7-7zm1459-37-24-28 28 24c15 14 27 26 27 28 0 8-8 1-31-24zm-50-40c-13-16-12-17 4-4s21 21 13 21c-2 0-10-8-17-17zm-1439-33c0-7 3-10 7-7 3 4 3 10 0 14-4 3-7 0-7-7zm1394-2c-4-7-3-8 4-4 12 7 16 16 8 16-3 0-8-5-12-12zm-1404-38c0-7 3-10 7-7 3 4 3 10 0 14-4 3-7 0-7-7zm1344-2c-4-7-3-8 4-4 12 7 16 16 8 16-3 0-8-5-12-12zm-30-20c-4-7-3-8 4-4 12 7 16 16 8 16-3 0-8-5-12-12zm-1323-14c0-11 3-14 6-6 3 7 2 16-1 19-3 4-6-2-5-13zm1273-16c-4-7-3-8 4-4s12 9 12 12c0 8-9 4-16-8zm-1283-24c0-11 3-14 6-6 3 7 2 16-1 19-3 4-6-2-5-13zm-11-34c0-7 3-10 7-7 3 4 3 10 0 14-4 3-7 0-7-7zm1123-27c4-3 10-3 14 0 3 4 0 7-7 7s-10-3-7-7zm-1133-13c0-7 3-10 7-7 3 4 3 10 0 14-4 3-7 0-7-7zm1083-7c4-3 10-3 14 0 3 4 0 7-7 7s-10-3-7-7zm-1040-40c4-3 10-3 14 0 3 4 0 7-7 7s-10-3-7-7zm30-10c4-3 10-3 14 0 3 4 0 7-7 7s-10-3-7-7zm860 0c4-3 10-3 14 0 3 4 0 7-7 7s-10-3-7-7zm-820-10c4-3 10-3 14 0 3 4 0 7-7 7s-10-3-7-7zm785 0c7-3 16-2 19 1 4 3-2 6-13 5-11 0-14-3-6-6zm-740-10c7-3 16-2 19 1 4 3-2 6-13 5-11 0-14-3-6-6zm695 0c4-3 10-3 14 0 3 4 0 7-7 7s-10-3-7-7zm-645-10c7-3 16-2 19 1 4 3-2 6-13 5-11 0-14-3-6-6zm590 0c6-2 18-2 25 0 6 3 1 5-13 5s-19-2-12-5zm-540-10c6-2 18-2 25 0 6 3 1 5-13 5s-19-2-12-5zm480 0c6-2 18-2 25 0 6 3 1 5-13 5s-19-2-12-5zm-400-10c6-2 18-2 25 0 6 3 1 5-13 5s-19-2-12-5zm320 0c6-2 18-2 25 0 6 3 1 5-13 5s-19-2-12-5z" fill="#76c484"/><path d="M9363 4873c4-3 10-3 14 0 3 4 0 7-7 7s-10-3-7-7zm440 0c4-3 10-3 14 0 3 4 0 7-7 7s-10-3-7-7zm-6073-43c0-7 3-10 7-7 3 4 3 10 0 14-4 3-7 0-7-7zm-535-490c0-267 1-376 2-242 2 133 2 351 0 485-1 133-2 24-2-243zm6713-477c28-2 76-2 105 0 28 2 5 3-53 3s-81-1-52-3zm-7363-543c3-5 8-10 11-10s2 5-1 10c-3 6-8 10-11 10s-2-4 1-10zm649-260c0-151 2-213 3-137 2 75 2 199 0 275-1 75-3 13-3-138zm594 263c28-2 76-2 105 0 28 2 5 3-53 3s-81-1-52-3zm6130 0c28-2 76-2 105 0 28 2 5 3-53 3s-81-1-52-3zm-1093-263c3-5 8-10 11-10s2 5-1 10c-3 6-8 10-11 10s-2-4 1-10zm-6050-120c3-5 8-10 11-10s2 5-1 10c-3 6-8 10-11 10s-2-4 1-10zm-600-100c3-5 8-10 11-10s2 5-1 10c-3 6-8 10-11 10s-2-4 1-10zm660 0c3-5 8-10 11-10s2 5-1 10c-3 6-8 10-11 10s-2-4 1-10zm895-60c0-7 3-10 7-7 3 4 3 10 0 14-4 3-7 0-7-7zm-530-14c0-2 8-10 18-17 15-13 16-12 3 4s-21 21-21 13zm-945-56c3-5 8-10 11-10s2 5-1 10c-3 6-8 10-11 10s-2-4 1-10zm80-130c3-5 8-10 11-10s2 5-1 10c-3 6-8 10-11 10s-2-4 1-10zm6810-50c3-5 8-10 11-10s2 5-1 10c-3 6-8 10-11 10s-2-4 1-10zm-6730-80c3-5 8-10 11-10s2 5-1 10c-3 6-8 10-11 10s-2-4 1-10zm6790-20c3-5 8-10 11-10s2 5-1 10c-3 6-8 10-11 10s-2-4 1-10zm-6740-60c3-5 8-10 11-10s2 5-1 10c-3 6-8 10-11 10s-2-4 1-10zm80-130c3-5 8-10 11-10s2 5-1 10c-3 6-8 10-11 10s-2-4 1-10zm670-30c3-5 8-10 11-10s2 5-1 10c-3 6-8 10-11 10s-2-4 1-10zm5490-30c3-5 8-10 11-10s2 5-1 10c-3 6-8 10-11 10s-2-4 1-10zm-6080-70c3-5 8-10 11-10s2 5-1 10c-3 6-8 10-11 10s-2-4 1-10zm6160-60c3-5 8-10 11-10s2 5-1 10c-3 6-8 10-11 10s-2-4 1-10zm80-130c3-5 8-10 11-10s2 5-1 10c-3 6-8 10-11 10s-2-4 1-10zm660-20c3-5 8-10 11-10s2 5-1 10c-3 6-8 10-11 10s-2-4 1-10zm-6690-130c3-5 8-10 11-10s2 5-1 10c-3 6-8 10-11 10s-2-4 1-10zm6160-60c3-5 8-10 11-10s2 5-1 10c-3 6-8 10-11 10s-2-4 1-10zm-6080-70c3-5 8-10 11-10s2 5-1 10c-3 6-8 10-11 10s-2-4 1-10zm680-60c3-5 8-10 11-10s2 5-1 10c-3 6-8 10-11 10s-2-4 1-10zm5480 0c3-5 8-10 11-10s2 5-1 10c-3 6-8 10-11 10s-2-4 1-10zm133-137c7-3 16-2 19 1 4 3-2 6-13 5-11 0-14-3-6-6z" fill="#a2a0a0"/><path d="M3683 4873c4-3 10-3 14 0 3 4 0 7-7 7s-10-3-7-7zm5651-15c-4-7-3-8 4-4s12 9 12 12c0 8-9 4-16-8zm501 2c3-5 8-10 11-10s2 5-1 10c-3 6-8 10-11 10s-2-4 1-10zm-6645-50c0-7 3-10 7-7 3 4 3 10 0 14-4 3-7 0-7-7zm6125-475c0-264 1-371 2-237 2 134 2 350 0 480-1 130-2 21-2-243zm-5527-472c28-2 76-2 105 0 28 2 5 3-53 3s-81-1-52-3zm6130 0c29-2 74-2 100 0s2 3-53 3-76-1-47-3zm-8029-30c-13-16-12-17 4-4 9 7 17 15 17 17 0 8-8 3-21-13zm8235-238c0-121 2-169 3-107 2 62 2 161 0 220-1 59-3 8-3-113zm-8250-20c0-126 2-177 3-112 2 65 2 168 0 230-1 62-3 9-3-118zm2049-252c4-3 10-3 14 0 3 4 0 7-7 7s-10-3-7-7zm5391-258c0-148 2-211 3-138 2 72 2 194 0 270-1 76-3 17-3-132zm734 258c7-3 16-2 19 1 4 3-2 6-13 5-11 0-14-3-6-6zm-2023-43c3-5 8-10 11-10s2 5-1 10c-3 6-8 10-11 10s-2-4 1-10zm740-120c3-5 8-10 11-10s2 5-1 10c-3 6-8 10-11 10s-2-4 1-10zm-5575-360c0-7 3-10 7-7 3 4 3 10 0 14-4 3-7 0-7-7zm6644-52c-4-7-3-8 4-4s12 9 12 12c0 8-9 4-16-8zm-779-68c3-5 8-10 11-10s2 5-1 10c-3 6-8 10-11 10s-2-4 1-10zm-5930-320c3-5 8-10 11-10s2 5-1 10c-3 6-8 10-11 10s-2-4 1-10zm-420-380c3-5 8-10 11-10s2 5-1 10c-3 6-8 10-11 10s-2-4 1-10zm80-130c3-5 8-10 11-10s2 5-1 10c-3 6-8 10-11 10s-2-4 1-10zm720-120c3-5 8-10 11-10s2 5-1 10c-3 6-8 10-11 10s-2-4 1-10zm-510-220c3-5 8-10 11-10s2 5-1 10c-3 6-8 10-11 10s-2-4 1-10zm20-30c3-5 8-10 11-10s2 5-1 10c-3 6-8 10-11 10s-2-4 1-10zm68-37c4-3 10-3 14 0 3 4 0 7-7 7s-10-3-7-7zm6120 0c4-3 10-3 14 0 3 4 0 7-7 7s-10-3-7-7z" fill="#aeacac"/></svg>