<svg xmlns="http://www.w3.org/2000/svg" fill="none" viewBox="0 0 654 439">
  <path fill="url(#a)" d="M0 0h23l6 6h56v53H0V0Z"/>
  <path fill="url(#b)" d="M0 168h23l6 6h56v52H0v-58Z"/>
  <path fill="url(#c)" d="M0 83h23l6 6h56v53H0V83Z"/>
  <path fill="url(#d)" d="M0 252h23l6 6h56v53H0v-59Z"/>
  <path stroke="#3B907B" stroke-miterlimit="10" stroke-width="3" d="M85 29h26v87m0 0H85m26 0v85m0 0H85m26 0v84H85m26-27h42"/>
  <path fill="url(#e)" d="m259 186-39-38a16 16 0 0 1-5-12V70c0-4 2-8 5-11l39-38a16 16 0 0 1 22 0l38 35a16 16 0 0 1 6 12v68a16 16 0 0 1-5 12l-38 38a16 16 0 0 1-23 0Z" opacity=".3"/>
  <path fill="#E8E8E8" d="M600 104H163c-8 0-15 7-15 15v242c0 8 7 15 15 15h437c9 0 16-7 16-15V119c0-8-7-15-16-15Z"/>
  <path fill="#3FB950" d="M216 118h-48c-4 0-7 3-7 7v8c0 3 3 6 7 6h48c3 0 6-3 6-6v-8c0-4-3-7-6-7ZM217 151h-48c-4 0-7 3-7 7v8c0 3 3 6 7 6h48c3 0 6-3 6-6v-8c0-4-3-7-6-7Z" opacity=".3"/>
  <path fill="#AEAEAE" d="M217 184h-48c-4 0-7 3-7 7v8c0 3 3 6 7 6h48c3 0 6-3 6-6v-8c0-4-3-7-6-7Z" opacity=".3"/>
  <path fill="#DA3633" d="M217 217h-48c-4 0-7 3-7 7v8c0 3 3 6 7 6h48c3 0 6-3 6-6v-8c0-4-3-7-6-7Z" opacity=".3"/>
  <path fill="#AEAEAE" d="M216 245h-48c-4 0-7 3-7 7v8c0 3 3 6 7 6h48c3 0 6-3 6-6v-8c0-4-3-7-6-7Z" opacity=".3"/>
  <path fill="#3FB950" d="M216 278h-48c-4 0-7 3-7 7v8c0 3 3 6 7 6h48c3 0 6-3 6-6v-8c0-4-3-7-6-7Z" opacity=".3"/>
  <path fill="#DA3633" d="M286 118h-48c-4 0-7 3-7 7v8c0 3 3 6 7 6h48c3 0 6-3 6-6v-8c0-4-3-7-6-7Z" opacity=".3"/>
  <path fill="#AEAEAE" d="M287 151h-48c-4 0-7 3-7 7v8c0 3 3 6 7 6h48c3 0 6-3 6-6v-8c0-4-3-7-6-7Z" opacity=".3"/>
  <path fill="#DA3633" d="M286 184h-48c-4 0-7 3-7 7v8c0 3 3 6 7 6h48c3 0 6-3 6-6v-8c0-4-3-7-6-7Z" opacity=".3"/>
  <path fill="#AEAEAE" d="M287 217h-48c-4 0-7 3-7 7v8c0 3 3 6 7 6h48c3 0 6-3 6-6v-8c0-4-3-7-6-7ZM285 245h-48c-4 0-7 3-7 7v8c0 3 3 6 7 6h48c3 0 6-3 6-6v-8c0-4-3-7-6-7Z" opacity=".3"/>
  <path fill="#3FB950" d="M286 278h-48c-4 0-7 3-7 7v8c0 3 3 6 7 6h48c3 0 6-3 6-6v-8c0-4-3-7-6-7ZM358 118h-48c-4 0-7 3-7 7v8c0 3 3 6 7 6h48c3 0 6-3 6-6v-8c0-4-3-7-6-7Z" opacity=".3"/>
  <path fill="#DA3633" d="M358 150h-48c-4 0-7 3-7 7v8c0 3 3 6 7 6h48c3 0 6-3 6-6v-8c0-4-3-7-6-7Z" opacity=".3"/>
  <path fill="#AEAEAE" d="M358 184h-48c-4 0-7 3-7 7v8c0 3 3 6 7 6h48c3 0 6-3 6-6v-8c0-4-3-7-6-7ZM358 216h-48c-4 0-7 3-7 7v8c0 3 3 6 7 6h48c3 0 6-3 6-6v-8c0-4-3-7-6-7Z" opacity=".3"/>
  <path fill="#3FB950" d="M357 245h-48c-4 0-7 3-7 7v8c0 3 3 6 7 6h48c3 0 6-3 6-6v-8c0-4-3-7-6-7Z" opacity=".3"/>
  <path fill="#AEAEAE" d="M357 277h-48c-4 0-7 3-7 7v8c0 3 3 6 7 6h48c3 0 6-3 6-6v-8c0-4-3-7-6-7Z" opacity=".3"/>
  <path fill="#3FB950" d="M428 118h-48c-4 0-7 3-7 7v8c0 3 3 6 7 6h48c3 0 6-3 6-6v-8c0-4-3-7-6-7ZM428 150h-48c-4 0-7 3-7 7v8c0 3 3 6 7 6h48c3 0 6-3 6-6v-8c0-4-3-7-6-7Z" opacity=".3"/>
  <path fill="#AEAEAE" d="M428 184h-48c-4 0-7 3-7 7v8c0 3 3 6 7 6h48c3 0 6-3 6-6v-8c0-4-3-7-6-7Z" opacity=".3"/>
  <path fill="#3FB950" d="M428 216h-48c-4 0-7 3-7 7v8c0 3 3 6 7 6h48c3 0 6-3 6-6v-8c0-4-3-7-6-7Z" opacity=".3"/>
  <path fill="#AEAEAE" d="M427 245h-48c-4 0-7 3-7 7v8c0 3 3 6 7 6h48c3 0 6-3 6-6v-8c0-4-3-7-6-7Z" opacity=".3"/>
  <path fill="#DA3633" d="M427 277h-48c-4 0-7 3-7 7v8c0 3 3 6 7 6h48c3 0 6-3 6-6v-8c0-4-3-7-6-7Z" opacity=".3"/>
  <path fill="#3FB950" d="M499 117h-48c-4 0-7 3-7 7v8c0 3 3 6 7 6h48c3 0 6-3 6-6v-8c0-4-3-7-6-7Z" opacity=".3"/>
  <path fill="#AEAEAE" d="M499 149h-48c-4 0-7 3-7 7v8c0 3 3 6 7 6h48c3 0 6-3 6-6v-8c0-4-3-7-6-7Z" opacity=".3"/>
  <path fill="#DA3633" d="M499 183h-48c-4 0-7 3-7 7v8c0 3 3 6 7 6h48c3 0 6-3 6-6v-8c0-4-3-7-6-7Z" opacity=".3"/>
  <path fill="#AEAEAE" d="M499 215h-48c-4 0-7 3-7 7v8c0 3 3 6 7 6h48c3 0 6-3 6-6v-8c0-4-3-7-6-7Z" opacity=".3"/>
  <path fill="#3FB950" d="M498 244h-48c-4 0-7 3-7 7v8c0 3 3 6 7 6h48c3 0 6-3 6-6v-8c0-4-3-7-6-7Z" opacity=".3"/>
  <path fill="#AEAEAE" d="M498 276h-48c-4 0-7 3-7 7v8c0 3 3 6 7 6h48c3 0 6-3 6-6v-8c0-4-3-7-6-7ZM570 115h-48c-4 0-7 3-7 7v8c0 3 3 6 7 6h48c3 0 6-3 6-6v-8c0-4-3-7-6-7ZM571 148h-48c-4 0-7 3-7 7v8c0 3 3 6 7 6h48c3 0 6-3 6-6v-8c0-4-3-7-6-7ZM570 181h-48c-4 0-7 3-7 7v8c0 3 3 6 7 6h48c3 0 6-3 6-6v-8c0-4-3-7-6-7Z" opacity=".3"/>
  <path fill="#DA3633" d="M571 214h-48c-4 0-7 3-7 7v8c0 3 3 6 7 6h48c3 0 6-3 6-6v-8c0-4-3-7-6-7Z" opacity=".3"/>
  <path fill="#AEAEAE" d="M569 242h-48c-4 0-7 3-7 7v8c0 3 3 6 7 6h48c3 0 6-3 6-6v-8c0-4-3-7-6-7Z" opacity=".3"/>
  <path fill="#DA3633" d="M570 275h-48c-4 0-7 3-7 7v8c0 3 3 6 7 6h48c3 0 6-3 6-6v-8c0-4-3-7-6-7Z" opacity=".3"/>
  <path fill="#AEAEAE" d="M598 118h-5c-3 0-6 3-6 6v226c0 3 3 6 6 6h5c4 0 6-3 6-6V124c0-3-2-6-6-6Z" opacity=".3"/>
  <path fill="#3FB950" d="M216 307h-48c-4 0-7 3-7 7v8c0 3 3 6 7 6h48c3 0 6-3 6-6v-8c0-4-3-7-6-7Z" opacity=".3"/>
  <path fill="#AEAEAE" d="M216 340h-48c-4 0-7 3-7 7v8c0 3 3 6 7 6h48c3 0 6-3 6-6v-8c0-4-3-7-6-7ZM286 307h-48c-4 0-7 3-7 7v8c0 3 3 6 7 6h48c3 0 6-3 6-6v-8c0-4-3-7-6-7Z" opacity=".3"/>
  <path fill="#DA3633" d="M286 340h-48c-4 0-7 3-7 7v8c0 3 3 6 7 6h48c3 0 6-3 6-6v-8c0-4-3-7-6-7ZM357 307h-48c-4 0-7 3-7 7v8c0 3 3 6 7 6h48c3 0 6-3 6-6v-8c0-4-3-7-6-7Z" opacity=".3"/>
  <path fill="#AEAEAE" d="M358 339h-48c-4 0-7 3-7 7v8c0 3 3 6 7 6h48c3 0 6-3 6-6v-8c0-4-3-7-6-7ZM427 307h-48c-4 0-7 3-7 7v8c0 3 3 6 7 6h48c3 0 6-3 6-6v-8c0-4-3-7-6-7Z" opacity=".3"/>
  <path fill="#3FB950" d="M428 339h-48c-4 0-7 3-7 7v8c0 3 3 6 7 6h48c3 0 6-3 6-6v-8c0-4-3-7-6-7Z" opacity=".3"/>
  <path fill="#DA3633" d="M499 306h-48c-4 0-7 3-7 7v8c0 3 3 6 7 6h48c3 0 6-3 6-6v-8c0-4-3-7-6-7Z" opacity=".3"/>
  <path fill="#3FB950" d="M499 338h-48c-4 0-7 3-7 7v8c0 3 3 6 7 6h48c3 0 6-3 6-6v-8c0-4-3-7-6-7Z" opacity=".3"/>
  <path fill="#AEAEAE" d="M570 304h-48c-4 0-7 3-7 7v8c0 3 3 6 7 6h48c3 0 6-3 6-6v-8c0-4-3-7-6-7Z" opacity=".3"/>
  <path fill="#3FB950" d="M570 337h-48c-4 0-7 3-7 7v8c0 3 3 6 7 6h48c3 0 6-3 6-6v-8c0-4-3-7-6-7Z" opacity=".3"/>
  <path fill="#1B1F23" fill-rule="evenodd" d="M137 358a17 17 0 0 0 31 15l-1-1-3-1c0 4-3 5-4 5l-2 1h-2a3 3 0 0 1 3-2 4 4 0 0 0 3-5l-2-1c-2 3-4 7-11 5l-3-3a6 6 0 0 1-5-2l3-4c0-3 1-6 3-8l-1-5a6 6 0 0 1 5 1h5c6 2 6 6 6 10h3l5 1 1-1a17 17 0 1 0-34-5ZM616 90a25 25 0 0 0-30 40h2l2-5c-6-2-6-5-6-6v-5c-1 0-2-2 0-1l3 4c0 5 3 5 5 5l3-2c-5-3-9-8-4-16l5-5a9 9 0 0 1 4-6l5 6c4 1 8 3 11 6 6-1 7 1 7 1l-3 6c1 2 0 5-1 7-4 8-11 8-16 5a6 6 0 0 1 0 5l-4 7 1 1a25 25 0 0 0 16-47Z" clip-rule="evenodd"/>
  <path fill="#3FB950" d="m480 54-4-1 1-1 3 1 1-4 1 1-1 3 4 1-1 1-3-1-1 4h-1l1-4Zm5 6 3 1 3-9h-3l1-1h4l-3 11h2v2l-7-2v-2Z"/>
  <path fill="#DA3633" d="m254 410 4-1 1 1-4 1-1-1Zm7 2v-1h3a2 2 0 0 0 2-3c-1-1-2-2-5-1v-1c2-1 3-2 2-3a2 2 0 0 0-2-1 3 3 0 0 0-2 2l-1-1 2-2c2-1 4 0 5 1a3 3 0 0 1-1 4 3 3 0 0 1 3 1c1 2 0 4-2 5a5 5 0 0 1-4 0Z"/>
  <path fill="#3FB950" d="m484 435-3 2-1-1 4-2-2-3 1-1 2 4 3-2 1 1-4 2 2 3-1 1-2-4Zm8 1v-1h3a3 3 0 0 0 1-4 3 3 0 0 0-3-1l-2 2h-1l-2-6 5-3 1 1-4 3 1 3 2-1a4 4 0 0 1 5 1 4 4 0 0 1-2 6 5 5 0 0 1-4 0Z"/>
  <defs>
    <linearGradient id="a" x1="0" x2="85.1" y1="29.3" y2="29.3" gradientUnits="userSpaceOnUse">
      <stop stop-color="#0FEF5F"/>
      <stop offset="1" stop-color="#3B907B"/>
    </linearGradient>
    <linearGradient id="b" x1="8.5" x2="7242" y1="11594" y2="11594" gradientUnits="userSpaceOnUse">
      <stop stop-color="#0FEF5F"/>
      <stop offset="1" stop-color="#3B907B"/>
    </linearGradient>
    <linearGradient id="c" x1="0" x2="7233.5" y1="6714.6" y2="6714.6" gradientUnits="userSpaceOnUse">
      <stop stop-color="#0FEF5F"/>
      <stop offset="1" stop-color="#3B907B"/>
    </linearGradient>
    <linearGradient id="d" x1="8.5" x2="7242" y1="16872.3" y2="16872.3" gradientUnits="userSpaceOnUse">
      <stop stop-color="#0FEF5F"/>
      <stop offset="1" stop-color="#3B907B"/>
    </linearGradient>
    <linearGradient id="e" x1="270.1" x2="270.1" y1="190.9" y2="16.9" gradientUnits="userSpaceOnUse">
      <stop stop-color="#0FEF5F"/>
      <stop offset=".1" stop-color="#10ED60"/>
      <stop offset=".2" stop-color="#13E662" stop-opacity=".9"/>
      <stop offset=".4" stop-color="#18DB65" stop-opacity=".8"/>
      <stop offset=".5" stop-color="#1FCC69" stop-opacity=".6"/>
      <stop offset=".7" stop-color="#29B86F" stop-opacity=".4"/>
      <stop offset=".9" stop-color="#34A076" stop-opacity=".2"/>
      <stop offset="1" stop-color="#3B907B" stop-opacity="0"/>
    </linearGradient>
  </defs>
</svg>
