<svg xmlns="http://www.w3.org/2000/svg" version="1.0" viewBox="0 0 12000 2130"><g fill="#605c5c"><path d="M3740 2115c-364-81-610-381-611-745-1-227 79-412 246-568 133-124 293-190 481-199 167-8 309 28 443 114 113 73 216 183 272 294l29 59h-175l-20-36c-27-51-133-153-197-192-108-64-253-99-368-87-369 39-621 380-545 739 46 215 227 405 441 460 79 20 232 21 309 1 135-36 282-140 352-251l28-44h175l-21 43c-74 145-203 273-343 342-50 25-118 52-151 61-85 22-264 27-345 9zM5420 2115c-241-50-449-215-550-439-64-142-83-340-47-488 83-342 393-588 740-588 127 0 225 23 346 81 92 45 115 62 195 142 103 104 146 170 187 289 73 213 50 450-63 643-49 83-180 216-261 264-166 97-366 133-547 96zm304-160c213-56 396-246 441-460 80-380-206-738-590-739-107 0-176 15-270 60-162 77-289 234-330 406-19 81-19 208 0 283 54 214 229 393 436 449 73 20 239 20 313 1zM7163 2120c-250-45-476-226-574-459-61-146-75-344-34-496 68-251 267-455 520-535 95-30 273-38 372-17 150 32 268 95 379 203l74 71V0h161l-4 753c-3 835 0 791-72 943-93 194-284 353-490 409-72 19-260 28-332 15zm287-165c165-44 317-168 389-317 49-105 65-171 64-278-1-299-214-547-512-597-85-14-103-14-189 0-300 49-513 296-515 597-1 103 14 172 59 267 70 148 206 267 362 317 92 30 252 35 342 11zM8908 2120c-477-86-760-590-583-1035 199-502 831-647 1232-281 139 127 243 345 243 510v46H8427l6 73c16 218 184 431 400 507 87 31 267 39 357 15 135-35 268-127 345-239l38-56h84c45 0 83 3 83 6 0 16-65 126-105 176-93 118-252 223-400 263-70 19-259 28-327 15zm707-947c-29-121-163-280-290-345-100-52-175-71-280-72-145-1-262 38-383 128-88 65-176 190-207 294l-6 22h1173l-7-27z"/></g><g fill="#40aa54"><path d="M606 2113c-148-31-274-100-381-208-250-250-296-623-114-933 19-31 73-96 120-143 74-76 99-93 190-137 139-67 227-86 378-80 95 4 132 11 204 35 93 33 175 78 238 131l39 34V0h240v733c0 698-1 736-20 816-56 233-233 436-460 528-129 52-297 66-434 36zm250-234c94-17 200-73 270-143 161-161 198-395 97-606-35-72-151-188-223-223-213-102-444-64-607 100-202 203-201 525 3 728 122 123 290 175 460 144zM1608 2068c27-35 250-322 497-638l447-575-446-3-446-2V610h696c439 0 693 4 689 10-3 5-226 292-496 637l-490 628 445 3 446 2v240H1558l50-62zM10070 1365V600h260v1530h-260v-765zM11102 2120c-280-51-501-244-598-525-26-73-28-93-29-225 0-125 3-155 23-220 21-65 63-158 90-198 7-10 32 0 108 44 54 31 101 59 104 61 2 2-6 23-19 45-149 260-46 597 223 728 242 119 521 42 667-183 133-205 108-465-62-642-129-135-313-191-488-150-35 9-66 14-68 11-6-6-65-227-61-231 2-2 41-11 88-21 173-35 372-5 520 78 184 103 321 277 377 478 13 48 18 100 17 200 0 126-3 142-33 230-81 238-255 412-490 490-78 26-114 32-205 35-61 2-135 0-164-5z"/></g></svg>